<svg viewBox="0 0 1280 2780" xmlns="http://www.w3.org/2000/svg"><defs><linearGradient id="gradient1" x1="0" x2="0" y1="0" y2="1"><stop offset="0%" stop-color="#330033" stop-opacity="0"></stop><stop offset="67%" stop-color="#330033"></stop><stop offset="100%" stop-color="#330033" stop-opacity="0"></stop></linearGradient><linearGradient id="gradient2" x1="0" x2="0" y1="1" y2="0"><stop offset="0%" stop-color="#FF00FF" stop-opacity="1"></stop><stop offset="25%" stop-color="#AA6600" stop-opacity=".75"></stop><stop offset="40%" stop-color="#DDDD00" stop-opacity=".35"></stop><stop offset="100%" stop-color="#DDDD00" stop-opacity="0"></stop></linearGradient><filter id="blur"><feGaussianBlur in="SourceGraphic" stdDeviation="6"></feGaussianBlur></filter><filter></filter><g id="grid-lines" fill="none" stroke="#9999FF"><path d="M0,2471 L1280,2471 M0,2317 L1280,2317 M0,2224 L1280,2224 M0,2162 L1280,2162 M0,2118 L1280,2118 M0,2085 L1280,2085 M0,2059 L1280,2059 M0,2038 L1280,2038 M0,2022 L1280,2022 M0,2008 L1280,2008 M0,1996 L1280,1996 M0,1985 L1280,1985 M0,1977 L1280,1977 M0,1969 L1280,1969"></path><path d="M-3860,2780 L640,1853 M-3260,2780 L640,1853 M-2660,2780 L640,1853 M-2060,2780 L640,1853 M-1460,2780 L640,1853 M-860,2780 L640,1853 M-260,2780 L640,1853 M340,2780 L640,1853 M940,2780 L640,1853 M1540,2780 L640,1853 M2140,2780 L640,1853 M2740,2780 L640,1853 M3340,2780 L640,1853 M3940,2780 L640,1853 M4540,2780 L640,1853"></path><rect y="1853" width="1280" height="116" fill="#9999FF"></rect></g><g id="face-head" fill="none" stroke="#33FFFF"><path d="M659,1452 L667,1430 658,1416 641,1410 626,1415 615,1427 618,1446 627,1458 634,1463 645,1463 654,1458 659,1452 z"></path><path d="M655,1466 L669,1443 666,1409 639,1391 612,1402 601,1426 607,1450 633,1471 655,1466 z"></path><path d="M678,1691 L701,1720 687,1744 649,1747 605,1737 602,1709 648,1685 678,1691 z"></path><path d="M660,1664 L687,1676 720,1702 717,1744 675,1770 609,1766 575,1741 583,1692 613,1665 644,1661 660,1664 z"></path><path d="M665,1592 L647,1598 629,1591 648,1585 665,1592 z"></path><path d="M641,1478 L659,1467 675,1448 676,1413 656,1388 620,1385 596,1412 593,1441 618,1463 623,1474 641,1478 z"></path><path d="M647,1787 L692,1785 734,1759 741,1708 707,1654 707,1625 711,1601 705,1587 701,1573 705,1557 684,1542 660,1514 647,1487 671,1457 684,1454 697,1445 657,1376 625,1369 606,1390 584,1426 578,1449 616,1466 623,1504 594,1529 593,1539 575,1557 596,1577 581,1592 580,1613 590,1649 549,1719 548,1746 571,1773 647,1787 z"></path><path d="M645,1791 L692,1791 754,1766 767,1725 727,1582 738,1569 724,1537 689,1504 676,1479 703,1476 718,1465 706,1433 687,1419 659,1353 624,1341 582,1420 569,1433 558,1449 567,1463 587,1457 593,1484 549,1546 558,1581 539,1626 532,1693 520,1712 520,1746 544,1777 645,1791 z"></path><path d="M642,1805 L708,1801 779,1768 796,1707 792,1652 802,1593 799,1542 768,1504 727,1476 729,1460 671,1316 627,1300 580,1407 570,1414 568,1425 557,1434 550,1446 548,1456 489,1466 449,1506 474,1730 492,1768 536,1793 642,1805 z"></path><path d="M631,1813 L699,1811 780,1782 803,1751 853,1526 845,1476 792,1439 728,1407 694,1360 677,1308 688,1266 794,1218 782,1202 752,1184 548,1159 480,1181 474,1223 500,1238 578,1257 606,1284 595,1336 537,1392 420,1434 391,1485 393,1532 434,1719 466,1768 527,1800 631,1813 z"></path><path d="M548,969 L539,973 530,982 550,971 551,970 548,969 z"></path><path d="M527,957 L507,962 512,963 509,966 517,966 510,970 529,966 535,962 527,957 z"></path><path d="M671,884 L660,874 622,855 635,865 623,863 643,874 654,885 672,888 671,884 z"></path><path d="M590,883 L547,871 560,877 541,877 549,880 523,886 594,888 590,883 z"></path><path d="M808,1311 L813,1311 820,1316 829,1317 844,1314 851,1308 843,1311 847,1305 835,1312 839,1300 831,1310 833,1300 827,1308 823,1309 828,1299 823,1301 825,1296 819,1300 819,1294 813,1300 808,1311 z"></path><path d="M792,1310 L799,1311 804,1308 810,1292 804,1301 801,1291 796,1304 792,1310 z"></path><path d="M786,1311 L787,1306 787,1296 785,1297 785,1294 782,1300 779,1297 779,1306 778,1312 786,1311 z"></path><path d="M765,1309 L763,1301 762,1308 760,1305 761,1311 768,1316 765,1309 z"></path><path d="M484,1342 L478,1345 478,1357 479,1349 481,1357 484,1342 z"></path><path d="M468,1342 L470,1342 466,1346 462,1355 463,1347 458,1354 462,1347 465,1342 468,1342 z"></path><path d="M581,1835 L626,1843 677,1840 746,1822 795,1798 814,1780 832,1750 888,1581 895,1516 878,1464 848,1437 774,1396 740,1382 708,1359 692,1331 688,1311 701,1305 815,1280 848,1262 851,1257 863,1246 857,1235 844,1218 820,1204 764,1156 649,1112 524,1147 425,1225 437,1246 466,1281 471,1297 463,1286 462,1296 459,1288 458,1300 455,1304 446,1293 446,1303 439,1295 445,1303 437,1300 441,1307 449,1309 440,1311 430,1309 437,1314 447,1314 451,1313 456,1308 465,1305 472,1303 477,1301 482,1301 492,1302 493,1301 506,1303 525,1310 526,1304 523,1306 530,1289 533,1289 537,1286 561,1288 584,1294 597,1315 585,1337 568,1345 549,1349 529,1346 521,1343 519,1338 488,1341 485,1347 487,1354 495,1366 416,1418 395,1451 377,1492 376,1540 420,1716 445,1761 489,1794 559,1829 581,1835 z"></path><path d="M922,1527 L905,1459 838,1381 841,1368 841,1361 843,1365 843,1356 852,1365 850,1356 846,1352 827,1352 823,1350 823,1344 827,1323 830,1321 843,1326 859,1340 871,1345 875,1342 881,1335 868,1336 856,1332 863,1331 856,1327 864,1324 868,1318 859,1324 851,1324 859,1319 869,1309 859,1316 852,1318 858,1311 850,1316 854,1307 848,1312 848,1307 844,1311 849,1301 849,1298 857,1293 872,1267 876,1254 880,1251 885,1251 889,1240 860,1215 838,1184 797,1144 738,1105 638,1076 537,1120 487,1150 445,1198 417,1220 418,1247 436,1288 436,1289 448,1298 444,1304 443,1310 439,1306 438,1303 439,1312 445,1315 441,1319 437,1321 435,1318 434,1321 429,1321 435,1323 432,1327 424,1327 429,1329 433,1329 459,1314 458,1324 469,1335 466,1336 450,1331 439,1337 445,1335 441,1339 440,1342 448,1337 458,1337 454,1342 453,1346 457,1340 463,1338 462,1344 463,1346 465,1339 473,1340 468,1352 472,1347 472,1354 477,1342 481,1342 487,1354 487,1362 467,1371 451,1376 426,1390 403,1409 387,1427 378,1444 368,1491 390,1664 414,1735 452,1777 614,1850 652,1852 733,1835 789,1811 826,1785 872,1710 922,1527 z"></path><path d="M510,890 L508,880 532,881 544,869 576,868 597,856 576,855 582,851 591,849 591,842 604,843 600,833 624,836 631,830 663,842 661,857 680,865 688,846 715,848 720,872 727,877 741,893 765,891 764,900 768,910 764,931 727,899 625,870 622,876 625,889 599,897 630,912 601,915 588,929 566,940 560,958 547,969 512,979 497,975 483,983 549,934 510,939 496,930 516,901 510,890 z"></path><path d="M814,971 L822,972 827,977 832,979 836,976 834,967 820,967 814,971 z"></path><path d="M595,929 L613,941 595,949 594,956 553,969 518,989 488,984 466,995 483,978 555,934 494,934 482,928 494,921 413,906 433,895 450,894 436,888 449,882 485,884 469,876 533,885 579,875 604,856 583,855 589,847 598,849 598,842 611,843 598,826 631,836 637,830 670,842 661,830 693,844 684,831 715,847 719,861 724,859 740,856 739,872 752,888 772,891 775,885 808,895 830,909 833,924 817,910 807,905 811,916 823,920 838,938 813,931 799,908 779,900 766,904 774,926 790,950 808,962 797,962 775,954 766,925 746,907 753,923 741,917 766,952 761,956 683,882 639,878 652,884 652,897 605,897 637,912 607,914 640,922 646,931 595,929 z"></path><path d="M671,1045 L772,1090 855,1174 880,1217 908,1243 905,1265 895,1294 877,1316 872,1341 886,1347 895,1348 887,1350 879,1349 871,1352 871,1373 918,1433 940,1497 906,1686 853,1777 744,1841 656,1873 592,1857 422,1766 381,1708 355,1477 370,1422 411,1370 428,1335 418,1335 426,1332 423,1329 428,1330 427,1326 401,1263 394,1229 429,1200 474,1137 522,1093 581,1063 671,1045 z"></path><path d="M738,1038 L818,1096 870,1171 898,1239 918,1262 914,1305 897,1342 894,1369 928,1423 946,1481 921,1674 899,1739 856,1791 723,1871 667,1943 610,1955 586,1910 549,1860 494,1819 407,1778 361,1725 341,1660 337,1469 353,1409 389,1341 374,1250 401,1214 424,1168 482,1087 544,1050 601,1026 652,1019 738,1038 z"></path><path d="M676,960 L650,974 641,962 610,967 590,960 547,969 497,997 440,1009 468,979 549,934 476,934 403,914 390,903 397,897 388,893 412,881 456,875 445,866 556,877 573,875 580,863 542,849 540,839 550,836 591,849 591,842 604,843 591,826 624,836 631,830 664,842 655,830 686,844 680,828 722,843 746,861 741,870 754,888 772,901 807,905 796,892 777,884 834,905 857,938 847,943 855,958 853,983 840,988 815,989 797,983 783,966 772,977 736,937 687,907 651,914 682,936 647,947 676,960 z"></path><path d="M676,975 L651,980 634,966 610,967 589,960 547,969 511,989 428,1012 468,979 409,996 505,946 440,934 360,895 375,893 387,894 372,875 376,869 411,874 433,871 387,861 418,860 445,867 462,861 484,866 504,861 493,855 488,844 510,856 514,851 503,837 543,850 540,844 567,853 591,849 577,836 604,844 618,839 653,840 663,842 655,830 678,838 670,828 693,832 722,843 760,868 764,882 771,891 768,899 772,901 807,905 796,892 777,884 769,865 805,880 794,867 820,887 823,868 832,895 884,933 878,946 855,958 868,983 846,999 828,997 813,1002 796,985 777,989 771,977 756,970 709,922 688,923 712,945 704,967 676,975 z"></path><path d="M689,998 L784,1045 838,1088 886,1161 934,1287 929,1292 919,1353 949,1441 955,1504 936,1672 917,1734 876,1787 741,1878 720,1905 712,1930 573,1959 560,1945 533,1880 508,1844 405,1789 351,1736 328,1668 328,1458 364,1328 362,1288 372,1246 384,1224 410,1156 459,1085 560,1020 604,1003 640,997 689,998 z"></path><path d="M885,1117 L927,1206 964,1469 949,1667 929,1739 884,1794 815,1838 765,1884 754,1913 677,1925 655,1929 575,1935 539,1932 505,1870 469,1833 389,1791 344,1740 323,1689 331,1381 388,1153 451,1073 566,998 631,976 578,985 580,977 505,993 452,997 432,994 403,978 396,969 400,960 467,964 403,939 373,914 360,895 362,879 376,884 361,860 374,863 371,844 382,867 387,861 382,836 395,850 397,831 413,843 419,831 430,863 455,851 474,858 490,861 494,855 476,848 514,851 525,849 524,842 564,851 562,846 598,857 619,858 610,855 615,848 640,851 644,842 673,847 664,840 746,859 787,878 793,873 840,905 840,896 857,919 882,932 893,951 891,958 880,953 878,968 870,957 872,984 859,997 856,1015 834,1020 828,998 816,1012 803,1006 809,995 777,989 756,980 756,970 738,958 716,934 727,960 716,973 714,984 810,1039 885,1117 z"></path><path d="M475,1883 L448,1843 386,1796 336,1738 313,1679 316,1375 354,1178 368,1138 482,1018 399,1025 416,1015 395,1008 416,1001 380,996 348,973 330,972 343,963 341,955 341,946 357,951 369,950 393,961 447,962 395,952 377,929 327,885 353,893 338,869 348,873 343,852 349,867 353,862 353,838 358,850 359,840 365,853 377,841 378,828 386,836 401,831 412,841 424,847 453,847 473,853 488,855 493,854 476,847 503,851 500,844 525,844 545,851 540,837 568,837 553,828 600,840 594,837 686,841 722,855 719,849 716,848 720,846 729,856 746,859 756,850 782,869 815,887 833,893 900,965 897,976 878,973 874,984 861,968 861,997 840,1024 899,1038 903,1014 923,1022 915,1032 937,1072 964,1102 986,1140 992,1166 925,1086 882,1052 839,1044 925,1149 937,1171 955,1185 944,1200 968,1413 946,1704 922,1754 884,1798 822,1848 785,1897 776,1919 700,1927 587,1921 552,1925 497,1924 z"></path><path d="M433,1016 L410,1018 360,1040 381,1047 411,1033 422,1022 433,1016 z"></path><path d="M876,1068 L907,1101 913,1105 915,1105 949,1153 944,1131 933,1107 897,1057 874,1062 876,1068 z"></path><path d="M442,1884 L426,1841 336,1738 313,1679 298,1406 306,1386 332,1218 323,1222 321,1205 321,1184 327,1161 325,1157 334,1149 351,1116 326,1119 382,1093 458,1024 460,1015 381,1052 271,981 337,1036 374,1030 405,1013 359,996 305,966 282,958 302,956 293,943 304,944 290,926 306,941 305,936 395,972 447,962 395,952 327,885 338,889 328,868 336,858 344,861 343,852 347,845 348,852 353,838 358,850 359,839 365,853 368,849 362,839 373,834 378,828 386,835 401,831 412,841 424,847 488,854 493,854 476,847 503,850 500,844 525,844 545,850 540,837 568,837 532,820 567,825 600,840 595,837 686,841 722,855 719,849 716,848 720,846 730,851 726,842 742,853 833,893 900,965 910,973 915,990 909,983 905,988 898,987 879,973 845,1023 897,1031 910,1020 930,1025 935,1039 922,1047 937,1073 964,1103 982,1142 997,1165 1001,1191 999,1189 993,1184 996,1202 991,1205 980,1202 976,1216 983,1242 975,1243 987,1278 973,1256 962,1263 975,1434 946,1705 922,1754 835,1849 823,1867 812,1909 727,1916 689,1913 671,1906 656,1904 442,1906 442,1884 z"></path><path d="M409,1884 L401,1830 378,1792 329,1735 312,1686 295,1443 284,1434 277,1411 276,1384 281,1355 294,1327 308,1312 317,1228 304,1234 293,1245 312,1188 306,1182 326,1150 281,1162 361,1088 395,1064 390,1053 351,1055 284,1026 263,1002 246,956 316,1007 297,990 282,984 267,970 267,960 291,964 282,958 273,946 287,948 279,935 282,929 272,911 268,894 278,896 289,910 297,896 290,884 295,874 307,874 311,870 309,861 313,865 317,860 321,860 326,861 323,850 332,867 334,859 333,853 337,841 340,849 343,852 347,845 348,852 353,838 358,850 359,839 365,853 368,849 362,839 375,841 384,852 386,835 405,845 408,850 415,857 463,864 470,861 483,859 489,854 476,851 494,854 476,847 503,850 500,844 531,848 512,832 556,841 586,841 575,837 601,840 595,837 664,846 675,844 680,848 715,855 701,848 705,846 722,851 711,842 739,856 757,861 775,875 787,877 830,900 851,926 882,942 901,965 919,960 920,978 910,983 913,996 903,994 886,996 871,1024 892,1023 916,1015 938,1021 936,1038 923,1047 957,1104 982,1125 971,1099 986,1106 997,1125 1009,1130 1013,1160 1028,1184 1024,1184 1025,1217 1017,1199 1006,1203 1000,1188 994,1184 998,1202 992,1205 989,1268 984,1292 984,1427 976,1434 940,1700 922,1746 847,1847 847,1892 807,1906 728,1916 690,1913 672,1906 657,1903 414,1907 409,1884 z"></path><path d="M380,1887 L375,1796 325,1734 306,1676 290,1455 280,1438 272,1417 272,1368 284,1318 275,1297 272,1282 263,1290 268,1275 264,1256 264,1240 278,1190 264,1210 273,1174 258,1184 280,1160 292,1124 328,1087 319,1086 296,1091 354,1063 288,1064 320,1055 321,1050 267,1028 245,1002 238,984 230,974 238,976 272,1006 278,1009 294,1011 284,1002 247,982 239,974 248,976 253,979 262,980 278,984 291,979 281,974 270,963 291,974 313,978 324,983 282,957 273,946 269,938 233,922 250,913 267,923 260,909 282,929 272,911 266,883 289,910 279,878 295,900 297,896 295,883 295,874 302,868 307,874 311,870 309,861 313,865 314,858 310,848 318,856 317,847 326,861 323,850 326,845 329,855 333,853 337,841 347,871 343,852 347,845 348,853 353,838 365,863 365,853 368,849 362,839 377,853 381,866 386,867 384,853 396,864 415,866 463,864 456,856 474,857 463,851 494,854 476,847 493,850 521,848 495,841 528,846 556,841 586,841 575,837 601,840 595,837 633,839 597,824 642,841 656,841 645,834 674,844 680,848 673,837 674,830 686,843 695,850 714,855 691,841 722,851 700,835 729,856 774,875 787,878 768,855 851,927 861,903 868,905 862,918 865,922 870,909 872,914 868,936 875,921 870,946 885,966 893,949 894,917 897,924 894,962 903,955 909,953 918,960 904,983 905,998 892,1013 870,1024 891,1023 921,1001 939,1017 935,1034 943,1048 969,1059 981,1069 990,1088 1005,1089 1013,1108 1015,1121 1015,1135 1019,1149 1013,1150 1023,1197 1016,1198 1024,1217 1022,1229 1024,1236 1015,1235 1018,1241 1015,1245 1011,1258 1012,1278 1004,1283 999,1293 996,1303 996,1325 990,1326 984,1342 984,1403 987,1427 977,1438 973,1448 938,1699 919,1744 888,1785 856,1866 851,1889 727,1916 690,1913 671,1906 657,1903 397,1907 394,1906 380,1887 z"></path><path d="M360,1788 L313,1722 285,1453 277,1443 270,1422 270,1373 274,1350 271,1329 263,1327 260,1311 256,1309 257,1295 252,1264 254,1239 259,1225 260,1217 259,1207 255,1203 254,1158 272,1128 266,1135 272,1124 295,1100 267,1106 250,1117 244,1127 251,1113 246,1115 249,1110 278,1085 229,1107 273,1072 286,1064 265,1067 297,1056 251,1039 233,1007 232,984 230,974 238,977 272,1006 278,1009 294,1011 284,1002 247,982 239,975 248,977 253,979 262,980 278,984 291,979 281,974 269,964 291,974 313,979 324,984 282,958 273,946 233,929 240,930 230,922 269,938 249,922 237,916 246,917 235,910 250,913 243,905 267,924 260,909 282,929 272,911 263,900 260,893 266,898 264,889 268,894 266,883 289,910 280,878 285,870 295,900 297,896 295,883 296,874 302,868 308,874 311,870 309,861 314,865 314,858 310,848 318,856 317,847 326,861 323,850 326,845 329,855 333,853 337,841 347,871 343,852 347,845 348,852 353,838 365,863 365,853 368,849 362,839 377,853 381,866 386,867 384,853 396,863 415,866 463,864 456,856 474,857 463,851 494,854 476,847 493,850 521,848 495,841 528,846 556,841 586,841 575,837 601,840 595,837 634,839 597,824 642,841 656,841 645,834 674,844 680,848 673,837 674,830 686,843 695,850 714,855 691,841 722,851 700,835 729,856 774,875 787,878 768,855 837,923 847,920 854,903 861,905 856,918 859,922 863,909 865,914 862,936 868,921 865,935 870,946 885,966 893,949 894,917 900,941 904,917 903,934 907,955 900,974 891,985 894,996 890,1005 885,1009 921,1001 939,1017 948,1036 957,1042 969,1045 982,1056 993,1079 998,1085 1005,1090 1008,1097 1010,1103 1013,1108 1015,1121 1015,1135 1019,1149 1013,1151 1023,1198 1016,1198 1024,1217 1022,1229 1024,1237 1015,1236 1018,1242 1015,1246 1021,1261 1021,1270 1014,1261 1011,1259 1014,1272 1015,1276 1012,1279 1013,1287 1010,1295 1010,1302 1003,1294 999,1293 998,1320 999,1327 996,1333 994,1335 992,1347 988,1343 989,1363 986,1375 983,1426 976,1433 965,1452 970,1478 963,1494 953,1590 941,1620 933,1691 918,1735 891,1776 876,1845 867,1881 807,1901 727,1916 689,1913 671,1906 657,1903 397,1908 368,1903 z"></path><path d="M367,1882 L355,1773 317,1711 307,1671 300,1600 289,1599 269,1590 259,1572 272,1543 294,1528 290,1460 284,1438 270,1422 270,1373 273,1364 277,1355 271,1339 267,1343 263,1336 266,1313 262,1311 264,1297 258,1266 261,1242 259,1234 260,1226 260,1216 255,1203 261,1181 262,1160 260,1146 273,1128 266,1136 272,1124 270,1116 266,1121 265,1125 260,1125 265,1120 270,1106 267,1107 251,1117 245,1127 252,1113 247,1115 250,1111 278,1085 243,1103 279,1077 287,1064 265,1067 286,1060 306,1041 263,1028 239,1007 230,974 238,976 272,1006 278,1009 294,1011 284,1002 247,982 239,974 248,976 253,979 262,980 278,984 291,979 281,974 270,964 291,974 313,978 324,983 282,958 273,946 233,929 240,930 230,922 269,938 249,922 237,916 246,916 235,910 250,913 243,905 267,923 260,909 282,929 272,911 263,900 260,893 266,898 264,889 268,894 266,883 289,910 280,878 285,870 295,900 297,896 295,883 296,874 302,868 308,874 311,870 309,861 314,865 314,858 310,848 318,856 317,847 326,861 323,850 326,845 329,855 333,853 337,841 347,871 343,852 347,845 348,852 353,838 365,863 365,853 368,849 362,839 377,853 381,866 386,867 384,853 384,838 388,848 396,854 403,852 430,856 474,857 463,851 494,854 476,847 493,850 521,848 495,841 586,841 575,837 601,840 595,837 634,839 597,824 642,841 656,841 645,834 674,844 680,848 673,837 674,830 686,843 695,850 714,855 691,841 722,851 700,835 746,853 787,878 768,855 837,905 852,924 860,914 864,886 870,903 865,915 868,920 872,906 872,894 874,911 871,933 878,919 874,932 879,943 894,963 902,947 903,914 909,939 913,914 912,931 916,952 909,971 904,980 908,984 914,996 940,1013 939,1004 955,1024 960,1036 990,1055 992,1062 998,1075 1002,1074 1003,1082 1028,1110 1013,1108 1023,1128 1023,1144 1015,1135 1022,1152 1031,1186 1023,1184 1032,1206 1032,1213 1039,1226 1028,1238 1031,1246 1031,1254 1034,1259 1028,1260 1030,1267 1025,1267 1026,1274 1022,1281 1022,1287 1019,1293 1019,1303 1017,1311 1017,1333 1014,1333 1014,1356 1010,1354 1004,1357 1003,1365 1000,1369 994,1367 990,1369 995,1377 985,1425 978,1441 972,1471 976,1487 974,1500 965,1526 970,1541 993,1536 1004,1550 1013,1580 994,1595 967,1597 953,1588 942,1622 936,1682 919,1733 884,1779 882,1807 873,1840 860,1883 812,1894 723,1910 690,1911 671,1904 657,1902 397,1906 377,1904 367,1882 z"></path><path d="M372,1885 L354,1762 317,1711 305,1666 299,1592 289,1592 262,1583 242,1568 240,1546 269,1519 293,1522 289,1450 274,1413 256,1389 260,1371 269,1365 277,1355 269,1343 260,1352 258,1345 263,1327 266,1313 262,1310 263,1296 258,1265 260,1241 259,1234 262,1159 272,1124 270,1115 266,1121 265,1124 260,1125 265,1120 269,1106 267,1106 250,1117 244,1127 251,1113 246,1115 249,1111 278,1085 243,1103 279,1077 287,1064 265,1067 286,1060 306,1041 263,1028 239,1007 230,974 238,976 272,1006 278,1009 294,1011 284,1002 247,982 239,974 248,976 253,979 262,980 278,984 291,979 281,974 270,964 291,974 313,978 324,983 282,958 273,946 233,929 240,930 230,922 269,938 249,922 237,916 246,916 235,910 250,913 243,905 267,923 260,909 282,929 272,911 263,900 260,893 266,898 264,889 268,894 266,883 289,910 280,878 285,870 295,900 297,896 295,883 296,874 302,868 308,874 311,870 309,861 314,865 314,858 310,848 318,856 317,847 326,861 323,850 326,845 329,855 333,853 337,841 347,871 343,852 347,845 348,852 353,838 365,863 365,853 368,849 362,839 377,853 381,866 386,867 384,853 384,838 388,848 396,854 403,852 430,856 474,857 463,851 494,854 476,847 493,850 521,848 495,841 586,841 575,837 601,840 595,837 634,839 597,824 642,841 656,841 645,834 674,844 680,848 673,837 674,830 686,843 695,850 714,855 691,841 722,851 700,835 746,853 787,878 768,855 837,905 852,924 860,914 864,886 870,903 865,915 868,920 872,906 872,894 874,911 871,933 878,919 874,932 879,943 894,963 902,947 903,914 909,939 913,914 912,931 916,952 909,971 904,980 908,984 914,996 940,1013 939,1004 955,1024 960,1036 990,1055 992,1062 998,1075 1002,1074 1003,1082 1028,1110 1013,1108 1023,1128 1023,1144 1015,1135 1022,1152 1031,1186 1023,1184 1032,1206 1032,1213 1039,1226 1028,1238 1031,1246 1031,1254 1034,1259 1028,1260 1030,1267 1025,1267 1026,1274 1022,1281 1022,1287 1019,1293 1019,1303 1017,1311 1017,1333 1014,1333 1014,1356 1010,1354 1004,1357 1003,1365 1000,1369 994,1367 990,1369 995,1377 1015,1373 1027,1377 1033,1394 1022,1397 1015,1401 1001,1428 983,1452 983,1465 972,1471 965,1526 979,1539 983,1530 1025,1516 1031,1526 1034,1553 1026,1579 1002,1595 963,1599 946,1581 935,1615 928,1679 912,1724 880,1771 867,1836 851,1881 710,1909 569,1908 559,1912 477,1920 387,1891 382,1891 372,1885 z"></path><path d="M372,1885 L356,1769 312,1711 298,1665 294,1593 287,1593 262,1583 242,1568 235,1545 236,1524 242,1505 244,1485 254,1455 275,1429 272,1410 235,1387 249,1365 269,1365 271,1363 269,1353 260,1352 258,1345 259,1329 266,1313 261,1310 263,1296 257,1292 261,1283 257,1265 259,1241 256,1233 258,1221 258,1219 257,1215 256,1204 261,1159 271,1123 270,1115 266,1120 264,1124 260,1124 264,1119 269,1106 267,1106 250,1117 244,1127 251,1113 246,1115 249,1110 278,1085 243,1103 279,1077 287,1064 265,1067 286,1060 306,1041 263,1028 239,1007 230,974 238,976 272,1006 278,1009 294,1011 284,1002 247,982 239,974 248,976 253,979 262,980 278,984 291,979 281,974 270,964 291,974 313,978 324,983 282,958 273,946 233,929 240,930 230,922 269,938 249,922 237,916 246,916 235,910 250,913 243,905 267,923 260,909 282,929 272,911 263,900 260,893 266,898 264,889 268,894 266,883 289,910 280,878 285,870 295,900 297,896 295,883 296,874 302,868 308,874 311,870 309,861 314,865 314,858 310,848 318,856 317,847 326,861 323,850 326,845 329,855 333,853 337,841 347,871 343,852 347,845 348,852 353,838 365,863 365,853 368,849 362,839 377,853 381,866 386,867 384,853 384,838 388,848 396,854 403,852 430,856 474,857 463,851 494,854 476,847 493,850 521,848 495,841 586,841 575,837 601,840 595,837 634,839 597,824 642,841 656,841 645,834 674,844 680,848 673,837 674,830 686,843 695,850 714,855 691,841 722,851 700,835 746,853 787,878 768,855 814,888 852,924 860,914 864,886 870,903 865,915 868,920 872,906 872,894 874,911 871,933 878,919 874,932 879,943 889,960 896,945 896,914 902,922 904,940 913,914 912,931 904,970 901,976 904,979 914,996 940,1013 939,1004 955,1024 960,1036 990,1054 992,1062 1002,1086 1021,1100 1028,1110 1013,1108 1023,1144 1015,1135 1022,1152 1031,1186 1030,1191 1040,1209 1032,1206 1032,1213 1039,1226 1030,1238 1033,1243 1031,1254 1034,1259 1034,1263 1030,1267 1024,1267 1026,1274 1022,1281 1022,1287 1023,1307 1020,1306 1017,1319 1017,1333 1013,1333 1013,1356 1010,1354 1010,1365 1022,1367 1039,1383 1047,1405 1042,1407 1031,1395 1014,1397 1031,1477 1040,1477 1051,1463 1035,1546 1023,1576 997,1594 963,1595 946,1582 935,1616 927,1679 911,1724 880,1772 866,1836 852,1887 709,1903 690,1902 676,1898 569,1908 559,1913 476,1921 386,1892 381,1891 372,1885 z"></path><path d="M372,1885 L361,1819 361,1774 311,1711 296,1668 293,1592 286,1594 261,1584 240,1569 232,1545 241,1461 228,1396 244,1366 269,1365 270,1363 266,1357 258,1355 259,1330 262,1313 259,1313 254,1309 259,1241 256,1233 258,1221 258,1220 257,1216 256,1205 259,1161 266,1139 267,1137 270,1125 270,1115 266,1121 264,1124 260,1125 264,1120 266,1111 264,1110 261,1113 254,1123 246,1124 244,1127 247,1120 240,1117 239,1117 261,1097 243,1107 279,1077 286,1064 251,1072 286,1060 297,1049 259,1031 239,1007 230,974 238,977 272,1006 278,1009 294,1011 284,1002 247,982 239,975 248,977 253,979 262,980 278,984 291,979 281,974 270,964 291,974 313,979 324,984 282,957 273,946 233,929 240,929 230,922 269,938 249,922 237,916 246,916 235,910 250,913 243,905 267,923 260,909 282,929 272,911 263,900 260,893 266,898 264,889 268,894 266,883 289,910 280,877 285,870 295,899 297,896 295,883 296,874 302,868 308,874 311,870 309,861 314,865 314,858 310,848 318,856 317,847 326,861 323,850 326,845 329,855 333,853 337,841 347,871 343,852 347,845 348,852 353,838 365,863 365,853 368,849 362,839 377,853 381,866 386,867 384,853 384,838 388,848 396,854 403,852 430,856 474,857 463,851 494,854 476,847 493,850 521,848 495,841 586,841 575,837 601,840 595,837 634,839 597,824 643,841 657,841 646,834 675,844 680,847 674,837 675,829 687,843 696,850 715,855 691,840 722,850 700,835 747,853 787,877 768,855 814,888 852,923 860,914 864,886 870,903 865,915 868,920 872,906 872,894 874,911 871,933 878,918 874,932 879,943 889,960 896,945 896,914 902,922 904,940 913,914 912,931 904,970 901,976 904,979 914,996 935,1011 943,1008 948,1017 955,1024 960,1036 969,1045 991,1060 994,1063 1002,1086 1021,1100 1040,1149 1041,1155 1023,1144 1015,1135 1022,1152 1031,1186 1030,1191 1040,1209 1032,1206 1032,1213 1039,1226 1030,1238 1033,1243 1031,1254 1034,1259 1034,1263 1030,1267 1034,1276 1026,1269 1026,1274 1026,1279 1027,1289 1022,1288 1023,1307 1020,1307 1021,1338 1014,1334 1014,1356 1010,1354 1011,1366 1022,1368 1039,1383 1048,1407 1048,1428 1052,1454 1036,1548 1024,1578 997,1595 963,1596 946,1582 934,1615 927,1680 911,1725 889,1760 875,1776 865,1835 853,1881 709,1903 690,1902 676,1899 569,1909 559,1913 476,1921 386,1892 381,1892 372,1885 z"></path></g><clipPath id="above-horizon"><rect width="1280" height="1853"></rect></clipPath></defs><rect y="1853" width="1280" height="927" fill="#000033"></rect><use href="#grid-lines" stroke-width="8" filter="url(#blur)"></use><use href="#grid-lines" stroke-width="4"></use><rect width="1280" height="2780" fill="url(#gradient1)"></rect><use href="#face-head" stroke-width="8" filter="url(#blur)" opacity=".8"></use><use href="#face-head" stroke-width="4"></use></svg>