<svg width="1024" height="512" viewBox="0 0 1024 512" xmlns="http://www.w3.org/2000/svg">
<rect width="1024" height="512" fill="#222"></rect>
<g fill="none" stroke="#36FFB4">
<line x1="0" y1="37" x2="1024" y2="37"></line>
<line x1="0" y1="475" x2="1024" y2="475"></line>
<line x1="0" y1="64" x2="1024" y2="64"></line>
<line x1="0" y1="448" x2="1024" y2="448"></line>
<line x1="0" y1="85" x2="1024" y2="85"></line>
<line x1="0" y1="427" x2="1024" y2="427"></line>
<line x1="0" y1="102" x2="1024" y2="102"></line>
<line x1="0" y1="410" x2="1024" y2="410"></line>
<line x1="0" y1="116" x2="1024" y2="116"></line>
<line x1="0" y1="396" x2="1024" y2="396"></line>
<line x1="0" y1="128" x2="1024" y2="128"></line>
<line x1="0" y1="384" x2="1024" y2="384"></line>
<line x1="0" y1="138" x2="1024" y2="138"></line>
<line x1="0" y1="374" x2="1024" y2="374"></line>
<line x1="0" y1="146" x2="1024" y2="146"></line>
<line x1="0" y1="366" x2="1024" y2="366"></line>
<line x1="0" y1="154" x2="1024" y2="154"></line>
<line x1="0" y1="358" x2="1024" y2="358"></line>
<line x1="0" y1="160" x2="1024" y2="160"></line>
<line x1="0" y1="352" x2="1024" y2="352"></line>
<line x1="0" y1="166" x2="1024" y2="166"></line>
<line x1="0" y1="346" x2="1024" y2="346"></line>
<line x1="0" y1="171" x2="1024" y2="171"></line>
<line x1="0" y1="341" x2="1024" y2="341"></line>
<line x1="0" y1="175" x2="1024" y2="175"></line>
<line x1="0" y1="337" x2="1024" y2="337"></line>
<line x1="0" y1="179" x2="1024" y2="179"></line>
<line x1="0" y1="333" x2="1024" y2="333"></line>
<line x1="0" y1="183" x2="1024" y2="183"></line>
<line x1="0" y1="329" x2="1024" y2="329"></line>
<line x1="0" y1="186" x2="1024" y2="186"></line>
<line x1="0" y1="326" x2="1024" y2="326"></line>
<line x1="0" y1="189" x2="1024" y2="189"></line>
<line x1="0" y1="323" x2="1024" y2="323"></line>
<line x1="0" y1="192" x2="1024" y2="192"></line>
<line x1="0" y1="320" x2="1024" y2="320"></line>
<line x1="0" y1="195" x2="1024" y2="195"></line>
<line x1="0" y1="317" x2="1024" y2="317"></line>
<line x1="0" y1="197" x2="1024" y2="197"></line>
<line x1="0" y1="315" x2="1024" y2="315"></line>
<line x1="0" y1="199" x2="1024" y2="199"></line>
<line x1="0" y1="313" x2="1024" y2="313"></line>
<line x1="0" y1="201" x2="1024" y2="201"></line>
<line x1="0" y1="311" x2="1024" y2="311"></line>
<line x1="0" y1="203" x2="1024" y2="203"></line>
<line x1="0" y1="309" x2="1024" y2="309"></line>
<line x1="0" y1="205" x2="1024" y2="205"></line>
<line x1="0" y1="307" x2="1024" y2="307"></line>
<line x1="0" y1="206" x2="1024" y2="206"></line>
<line x1="0" y1="306" x2="1024" y2="306"></line>
<line x1="0" y1="208" x2="1024" y2="208"></line>
<line x1="0" y1="304" x2="1024" y2="304"></line>
<line x1="0" y1="209" x2="1024" y2="209"></line>
<line x1="0" y1="303" x2="1024" y2="303"></line>
<line x1="0" y1="211" x2="1024" y2="211"></line>
<line x1="0" y1="301" x2="1024" y2="301"></line>
<line x1="0" y1="212" x2="1024" y2="212"></line>
<line x1="0" y1="300" x2="1024" y2="300"></line>
<line x1="0" y1="213" x2="1024" y2="213"></line>
<line x1="0" y1="299" x2="1024" y2="299"></line>
<line x1="0" y1="214" x2="1024" y2="214"></line>
<line x1="0" y1="298" x2="1024" y2="298"></line>
<line x1="0" y1="216" x2="1024" y2="216"></line>
<line x1="0" y1="296" x2="1024" y2="296"></line>
<line x1="0" y1="217" x2="1024" y2="217"></line>
<line x1="0" y1="295" x2="1024" y2="295"></line>
<line x1="0" y1="218" x2="1024" y2="218"></line>
<line x1="0" y1="294" x2="1024" y2="294"></line>
<line x1="0" y1="219" x2="1024" y2="219"></line>
<line x1="0" y1="293" x2="1024" y2="293"></line>
<line x1="0" y1="219" x2="1024" y2="219"></line>
<line x1="0" y1="293" x2="1024" y2="293"></line>
<line x1="-3188" y1="0" x2="512" y2="256"></line>
<line x1="-3188" y1="512" x2="512" y2="256"></line>
<line x1="-2988" y1="0" x2="512" y2="256"></line>
<line x1="-2988" y1="512" x2="512" y2="256"></line>
<line x1="-2788" y1="0" x2="512" y2="256"></line>
<line x1="-2788" y1="512" x2="512" y2="256"></line>
<line x1="-2588" y1="0" x2="512" y2="256"></line>
<line x1="-2588" y1="512" x2="512" y2="256"></line>
<line x1="-2388" y1="0" x2="512" y2="256"></line>
<line x1="-2388" y1="512" x2="512" y2="256"></line>
<line x1="-2188" y1="0" x2="512" y2="256"></line>
<line x1="-2188" y1="512" x2="512" y2="256"></line>
<line x1="-1988" y1="0" x2="512" y2="256"></line>
<line x1="-1988" y1="512" x2="512" y2="256"></line>
<line x1="-1788" y1="0" x2="512" y2="256"></line>
<line x1="-1788" y1="512" x2="512" y2="256"></line>
<line x1="-1588" y1="0" x2="512" y2="256"></line>
<line x1="-1588" y1="512" x2="512" y2="256"></line>
<line x1="-1388" y1="0" x2="512" y2="256"></line>
<line x1="-1388" y1="512" x2="512" y2="256"></line>
<line x1="-1188" y1="0" x2="512" y2="256"></line>
<line x1="-1188" y1="512" x2="512" y2="256"></line>
<line x1="-988" y1="0" x2="512" y2="256"></line>
<line x1="-988" y1="512" x2="512" y2="256"></line>
<line x1="-788" y1="0" x2="512" y2="256"></line>
<line x1="-788" y1="512" x2="512" y2="256"></line>
<line x1="-588" y1="0" x2="512" y2="256"></line>
<line x1="-588" y1="512" x2="512" y2="256"></line>
<line x1="-388" y1="0" x2="512" y2="256"></line>
<line x1="-388" y1="512" x2="512" y2="256"></line>
<line x1="-188" y1="0" x2="512" y2="256"></line>
<line x1="-188" y1="512" x2="512" y2="256"></line>
<line x1="12" y1="0" x2="512" y2="256"></line>
<line x1="12" y1="512" x2="512" y2="256"></line>
<line x1="212" y1="0" x2="512" y2="256"></line>
<line x1="212" y1="512" x2="512" y2="256"></line>
<line x1="412" y1="0" x2="512" y2="256"></line>
<line x1="412" y1="512" x2="512" y2="256"></line>
<line x1="612" y1="0" x2="512" y2="256"></line>
<line x1="612" y1="512" x2="512" y2="256"></line>
<line x1="812" y1="0" x2="512" y2="256"></line>
<line x1="812" y1="512" x2="512" y2="256"></line>
<line x1="1012" y1="0" x2="512" y2="256"></line>
<line x1="1012" y1="512" x2="512" y2="256"></line>
<line x1="1212" y1="0" x2="512" y2="256"></line>
<line x1="1212" y1="512" x2="512" y2="256"></line>
<line x1="1412" y1="0" x2="512" y2="256"></line>
<line x1="1412" y1="512" x2="512" y2="256"></line>
<line x1="1612" y1="0" x2="512" y2="256"></line>
<line x1="1612" y1="512" x2="512" y2="256"></line>
<line x1="1812" y1="0" x2="512" y2="256"></line>
<line x1="1812" y1="512" x2="512" y2="256"></line>
<line x1="2012" y1="0" x2="512" y2="256"></line>
<line x1="2012" y1="512" x2="512" y2="256"></line>
<line x1="2212" y1="0" x2="512" y2="256"></line>
<line x1="2212" y1="512" x2="512" y2="256"></line>
<line x1="2412" y1="0" x2="512" y2="256"></line>
<line x1="2412" y1="512" x2="512" y2="256"></line>
<line x1="2612" y1="0" x2="512" y2="256"></line>
<line x1="2612" y1="512" x2="512" y2="256"></line>
<line x1="2812" y1="0" x2="512" y2="256"></line>
<line x1="2812" y1="512" x2="512" y2="256"></line>
<line x1="3012" y1="0" x2="512" y2="256"></line>
<line x1="3012" y1="512" x2="512" y2="256"></line>
<line x1="3212" y1="0" x2="512" y2="256"></line>
<line x1="3212" y1="512" x2="512" y2="256"></line>
<line x1="3412" y1="0" x2="512" y2="256"></line>
<line x1="3412" y1="512" x2="512" y2="256"></line>
<line x1="3612" y1="0" x2="512" y2="256"></line>
<line x1="3612" y1="512" x2="512" y2="256"></line>
<line x1="3812" y1="0" x2="512" y2="256"></line>
<line x1="3812" y1="512" x2="512" y2="256"></line>
<line x1="4012" y1="0" x2="512" y2="256"></line>
<line x1="4012" y1="512" x2="512" y2="256"></line>
</g>
<rect x="0" y="219" width="1024" height="74" fill="#36FFB4"></rect>
<g fill="#222" stroke="#36FFB4">
<path transform="matrix(0.96, 0, 0, 0.96, 21, 10)" stroke-width="1.04" d="M108 445c-4.5-14-4.8-28-4.5-42-16-15-27-36-26-58 6.9-19-30-11-23-33-.15-12 6.3-25 .61-36-10-15 5.4-31 12-31-9.5-2.2.83-16-4.2-21 1.5-16 .19-30 .88-46-1.8-9.4 8.8-26 1.3-22 4.4-12-7.2 8.1-8.2-2.1 2-2.2 14-13 1.1-4 8.1-5 26-22 5.2-14-3.6 1.2 28-8.3 7-11-12 .54-25-37-8.9-19 2.4 7.2 27 11 9.7 2.7-7.7-3.1-21-11-5.5-6.6 9.8 3.4 13-1.3 2.7-6.2 5.3 3.5 30 11 14 3-6.3-2.4-10-8-15-11-5.2-2.9-13-4.3-12-6.2-4.1-3.3 9.7 3.6 13 4.5-1.7-3.3-16-9.2-8.7-8.2-7.7-3.1 3.8-1.9.33-3 8.3 7.5 8.6 4.2 6.4 1.6 7.3 7.7 7.4 5.2 1.7-2.2-5.7-6.6.15-3.6-.52-7 .22-5 14 19 5.7.3-2.4-20 8.9 18 4.9-2.4.83-6.3 6.8-4.6 6.9-7.1-1.5-7.4 4-5.4 2.7-4.9 3.5 7.2-.4-6.4 4.7.65 2-13 3.5 5.2 5.1 5.8-2.6-10 .99-4.2 2.5-12 2.3 10 8.9 10 3.6.33 6 3.3 11 20 8 2.8-1.2-2 8.8 5.2 16 3.7 9 .39 20 1.2 16-1.6 16 3 2.3-1.3 5.5-1 12 1.4 18-.22 4.7-3 12-.32 23 .094 35 0-11-2.8 8.4.61 5.6-1.4 6.6.42 18 1.9 5.6-2.2-20-8.6 24 10 12 1.3 9.4 4.9 12 3.7 12-.41 11 11 14 6.5 6.8 3.4 13 6 5.2-1.2 3.4-2.1 11 4.5 22 8 31 15-10-12-5.2-6.8 3.6-.16 9.4 2.9 25 31 25 7 4.2-11-1.3 22 3.6 4 1.9-15-2.4 22 1.9 4.7-4.6 11 11 24 7.4 3.7.67-13 2.7 14 5.3-2.6 2.5-4.1-1.4 15-3.7 21 4.8 12 17 11 22 21 11 12 23 23 29 39 10 16-8.4.26-5.8 3 .6 9.8 10 24 4.8 26 3.7 7.1-.089 15 .24 23 2.1 3.7-5.5-2.4-1.5 7.4-2.4 2.8-3.4 11-2.5 18-4.2.85-7.2 14 4 15 11 14 7.6 34 4.1 50 2.8 19-14 45-35 31-11 5.2-4.2 35-13 49-11 16-19 31-21 50-2.8 7.7-9.6 8.5-18 10-14 3.3-28 8.5-42 11-6.4-.62-12-2-19 .11-14 .42-28 .66-41 4.3-18 3.9-35 1.6-52-5.7-3.8-3.2-12-.96-14-5.7z"></path>
<path transform="matrix(0.97, 0, 0, 0.97, 18, 9)" stroke-width="1.03" d="M108 445c-8.1-16 1.5-38-13-51-16-16-17-39-17-60-16 .31-29-16-21-31-3.9-17 23-31 7.6-43-19-3.1-1.7-15 4-15-11-3.5 1.9-19-4.7-24 1-15-1.5-29 .72-44-3.6-6.4 10-29-.11-21 10-15-7.7.29-5.1-1.1-.2-4.3 4-7 9.8-12 6.1-4.6-22 12-4.8.16 17-6.8 3.2-11 5.9-10 8-2.5 17-12 2.1-11-10 .49-24-21-16-23 1.4 8.2 32 19 15 8-7.7-3.1-21-11-5.5-6.6 9.8 3.4 13-1.3 2.7-6.2 5.3 3.5 30 11 14 3-6.3-2.3-10-7.9-15-11-5.2-2.9-13-4.3-12-6.2-4.1-3.3 9.7 3.6 13 4.5-1.7-3.3-16-9.2-8.7-8.2-7.7-3.1 3.8-1.9.33-3 8.3 7.5 8.6 4.2 6.4 1.6 7.3 7.7 7.4 5.2 1.7-2.2-5.7-6.6.15-3.6-.52-7 .22-5 14 19 5.7.3-2.4-20 8.9 18 4.9-2.4.85-6.3 6.7-4.6 6.9-7.1-1.6-7.5 3.9-5.5 2.7-4.9 3.5 7.2-.4-6.4 4.7.65 2-13 3.5 5.2 5.1 5.8-2.6-10 .99-4.2 2.5-12 2.3 10 8.9 10 3.6.33 6 3.3 11 20 8 2.8-1.2-2 8.8 5.2 16 3.7 9 .39 20 1.2 16-1.6 16 3 2.3-1.3 5.5-1 12 1.4 18-.22 4.7-3 12-.32 23 .094 35 0-11-2.8 8.4.61 5.6-1.4 6.6.42 18 1.9 5.5-2.1-20-8.6 21 9.3 13 1.9-.04-3.2 16 10 9.5-2.6 7.1 11 20 11 7.2 4.6 8.2 3.8 15 4.1 2.4-2.5 11 4.9 23 8.4 33 16-10-12-4.9-6.7 3.8-.21 9.4 2.9 25 31 25 7 4.2-11-1.3 22 3.6 4 1.9-15-2.4 22 1.9 4.7-4.6 11 11 24 7.4 3.7.67-13 2.7 14 5.3-2.6 2.5-4.1-1.4 15-3.7 21 3.6 7.4 17 9.5 16 12 7.4 13 20 18 26 31 10 8.6 4.3 5.4.88 8.4 4.2 9 3.4 11 1.8 10 .6 9.8 10 24 4.8 26 2.2 6.1 2.6 17-1.3 22-3 4.4-.39 14-3.5 18-.45 8.2-2.6 13-2.9 19 11-2.4 20 26 5.9 11-11 2.5.5 30 5.2 32 9.8-15-1.8 15-.64 20 2 21-25 31-36 21-7.3 20-2.9 43-17 60-13 12-8.8 33-19 46-18 4.8-37 11-55 15-6.4-.026-13-2.6-19 .059-14 .49-29 .6-42 4.4-18 3.9-35 1.6-52-5.7-3.8-3.3-12-.9-14-5.4z"></path>
<path transform="matrix(0.97, 0, 0, 0.97, 14, 7)" stroke-width="1.03" d="M108 445c-8.1-18 1.2-42-15-56-13-15-11-37-13-55-15 2.5-34-15-15-25 6.1-5 17 2.2 12-11 5.1-19-12-33-12-48 9.4-3.2 5-14-1.3-7.7 6.5-13-1.3-26 1.5-40-.18-14-1.9-29 2.8-42 5.2-14-7.4 3.3.5-11-8.2 3.5-8.4 9.1-8.7 3.5 3.2-4.9 19-16 5.2-7.7-14 8.5 21-18 5.6-12 8-2.5 17-12 2.1-11-10 .49-24-21-16-23 1.4 8.2 32 19 15 8-7.7-3.1-21-11-5.5-6.6 9.8 3.4 13-1.3 2.7-6.2 5.3 3.5 30 11 14 3-6.3-2.3-10-7.9-15-11-5.2-2.9-13-4.3-12-6.2-4.1-3.3 9.7 3.6 13 4.5-1.7-3.3-16-9.2-8.7-8.2-7.7-3.1 3.8-1.9.33-3 8.3 7.5 8.6 4.2 6.4 1.6 7.3 7.7 7.4 5.2 1.7-2.2-5.7-6.6.15-3.6-.52-7 .22-5 14 19 5.7.3-2.4-20 8.9 18 4.9-2.4.85-6.3 6.7-4.6 6.9-7.1-1.6-7.5 3.9-5.5 2.7-4.9 3.5 7.2-.4-6.4 4.7.65 2-13 3.5 5.2 5.1 5.8-2.6-10 .99-4.2 2.5-12 2.3 10 8.9 10 3.6.33 6 3.3 11 20 8 2.8-1.2-2 8.8 5.2 16 3.7 9 .39 20 1.2 16-1.6 16 3 2.3-1.3 5.5-1 12 1.4 18-.22 4.7-3 12-.32 23 .094 35 0-11-2.8 8.4.61 5.6-1.4 6.6.42 18 1.9 5.5-2.1-20-8.6 21 9.3 13 1.9-.04-3.2 16 10 9.5-2.6 7.1 11 20 11 7.2 4.6 8.2 3.8 15 4.1 2.4-2.5 11 4.9 23 8.4 33 16-10-12-4.9-6.7 3.8-.21 11 1.7 24 31 25 7 4.2-11-1.3 22 3.6 4 1.9-15-2.4 22 1.9 4.7-4.8 12 13 24 9.8 3.9-.27-13 2.8 14 3.5-3.7-.49.41 3.4 17-2.9 23 1.8 6.9 12 14 14 12 7.4 13 20 19 26 31 4.7 5.4 9.8 10 .37 7 3 2.6 8.4 20 .77 10 5.3 9.5 4.8 19 4.8 22 3 7.7 3.5 14 1.3 20 1.2 7.5-2.4 7.3-3.4 16-1.8 5.5-1.6 12-1.8 18-1.4 4-2.8 13-8.6 13-5.2 6.9 22-2.4 13 11-12 6-18 23-22 35-2 11-4.2 26 8.8 15 19-18 21 23 3.5 26-7.9 5.4-24-5.7-22-3.6-7.3 20-2.9 43-17 60-13 12-8.8 33-19 46-18 4.8-37 11-55 15-6.4-.026-13-2.6-19 .059-14 .49-29 .6-42 4.4-18 3.9-35 1.6-52-5.7-3.9-3.5-12-.84-14-5.3z"></path>
<path transform="matrix(0.98, 0, 0, 0.98, 11, 6)" stroke-width="1.02" d="M106 444c-2.6-20-.023-39-17-54-12-19-7-42-12-63-2.8-15-2.6-31-3-47-11-12-3-31-4.8-46-8-4.6-5.5-19-7.7-29 4.9-15-1.3-27 2-42 4.9-3.2 5.7-9.2 4.4-5.6 5.3-11 14-14-.86-9.7-6.3 3-9.2 10-7 2.9-1.7-1.4 18-15 6.7-8.5-8.2 4.7-20 8.7-6.3-.65 3.9-4.8 23-13 5.9-8.7 10-2.9 16-5.1 1.8-7.3-17-.66-21-44-3.7-19 4 6.2 22 6.6 6.4-.097-7.7-3.1-21-11-5.5-6.6 9.8 3.4 13-1.3 2.7-6.2 5.3 3.5 30 11 14 3-6.3-2.3-10-7.9-15-11-5.2-2.9-13-4.3-12-6.2-4.1-3.3 9.7 3.6 13 4.5-1.7-3.3-16-9.2-8.7-8.2-7.7-3.1 3.8-1.9.33-3 8.3 7.5 8.6 4.2 6.4 1.6 7.3 7.7 7.5 5.1 1.8-2.3-5.7-6.6.15-3.6-.52-7 .22-5 14 19 5.7.3-2.4-20 8.9 18 4.9-2.4.85-6.3 6.7-4.6 6.9-7.1-1.6-7.5 3.9-5.5 2.7-4.9 3.5 7.2-.4-6.4 4.7.65 2-13 3.5 5.2 5.1 5.8-2.6-10 .99-4.2 2.5-12 2.3 10 8.9 10 3.6.33 8.5 9.1 7.3 12 10 5.8 4.5 7.5 15 3.4 23 4.1 9.2 1.1-2.7-5.6 9.6-2.9-12-5.7 17 1.6.77-3.8 15 2.8 19-.44 8.3-2.3 7.7 2.2 15 1.5 23-.17 7.3.36 11-.18 7.6-1.2 5.6.14 14 .12 20 .19-5.5-2.3-20-8.2-5.5-2.5 7.7 4.3 17 4.3 12 1.3 14 8.1 8.9 1.5 11-.35 11 11 14 6.5 6.8 3.4 13 6.2 5.5-1.7 3.2-1.6 8.4 7.5 19 11 29 15 3.8-2.4-11-14 .19-2.6 7.7 5.1 22 31 28 12 5.2-.11-2.3 16 3.3 2.2 2.7-1.3-3.3 18 1.9 4.7-4.8 12 13 24 9.8 3.9-.27-13 2.8 14 3.5-3.7-.75.23 3.9 17-3.3 22-2.7 11-3.5 13 9.9 8 11 13 25 21 33 36 4.7 9.5 1.8 19 3.2 25 .43 11 2.3 15 1.8 24-1.3 4.8-1.8 8-.17 17-5.2-8.7-1.8 2.1-3.1 6.4.014 10-7.3-2.6-5.6 10 1.3 7.4-3.7 11-3.6 14-1 13 1.5 28-8.9 38 2.3 17-2.7 34-4.5 51-10 20-2.7 45-17 63-14 13-4.3 39-23 48-8.9 6.4-19 10-30 11-13 3.1-26 4.1-38-1.1-17-2.2-35 2.6-52 .87-20-1.3-39 1.3-59-.96-1.5-2.8-3-5.7-4-8.8z"></path>
<path transform="matrix(0.98, 0, 0, 0.98, 8, 4)" stroke-width="1.02" d="M111 446c-2.8-18 2.8-37-14-49-19-23-13-55-19-83 1.3-19-2.6-37-7.7-54-1.5-13 10-39-2.3-43-.58-6.2-1.2-27 4.5-37-7.1 14-5.1 1.4-1.7-6.3-13 10 7.5-8.1 4.3-16 7.3-7.1 26-22 5.7-16 2.4-2.4 33-14 9.3-10-9.2.83-18 .63-3.7-2.7 2.9-7.3-30-8.5-28-25-10-17 15 15 20 6.7-5.8-4.3-31-16-12-11 9.8 3.4 13-1.3 2.7-6.2 5.3 3.5 30 11 14 3-5.6-3.1-12-6.3-14-13-3.8-2.8-19-5.3-8.9-8.6 6.7.87 8.3 3.6 6.1-1.8 6.6 6.2 9 8.4 3.6-.88-2.9-8.4-1.8-11 3.8-3 7.4 12-6.7-21 3.7-2.6 4.7 8.5-1.5-15 6.9-8.3 2.2-2.5-.43-9.6 2.6-7 1.1-5.3 3.6 7.5 3.8-3 2.1 8.4 4.9-7.4 6.3 4.5 3.6 14-1.7-8.3 2-2.7.82-12 7.1 10 6.7 1.1-.85-11 3.2 1.6 7.8 5.1-4.1-13 9.4 5.4 18-.51 9.2.76 10-1.4 11-3.3 8.5.96-5.4-4.9 9-1.5 8.2 1.5-13-4.7 2.7-1.2 17 .99 5.8-2.2 2.1-3.3 7.7 2.2 15 1.5 23-.17 7.3.36 11-.18 7.6-1.2 5.6.13 14 .12 20 .18-5.5-2.3-20-8.3-5.4-2.5 7.7 4.3 17 4.3 12 1.3 14 8.1 8.9 1.5 11-.35 11 11 14 6.5 6.8 3.4 13 6.2 5.5-1.7 3.2-1.6 8.4 7.5 19 11 29 15 3.2-3.1-11-13 1.4-2.6 8.3 5.7 18 17 26 20 1.7-8.3 8.2-11 3.9.17 4.4-11 3.8-3.7 2.2 4.3 1.7-16 .55 21 8.8 7.1 1.2-12 2.3-17 1.5-3.9-3.3 13 6.5-2.8 8.2 6.9-5.4 4.6-3.7 11-6.8 16-6.2 5.7-16 11-1 6.1 8.1-12 19-3.6 16 7.6 12 10 27 16 30 33-2.1 9.1.92 17 1.1 27-.45 2.3 4.2 16-1.4 15-1.7 7.9-.43 16-6.4 21-1.6 7-.65 12-5 17-1.6 10-.24 21 .11 31-7.1 11-5.6 27-7.5 40-.64 22-11 42-11 63-.77 20-20 31-25 49-5.5 15-7.9 34-28 32-16 2.6-33 8.5-49 1.2-18-2.7-35 2.5-53 .69-17-.48-34-.13-51 .032-2.8-1.8-5.3-4.5-6.5-7.7z"></path>
<path transform="matrix(0.99, 0, 0, 0.99, 4, 2)" stroke-width="1.01" d="M122 445c1.2-20-9.4-36-24-48-18-20-13-49-18-73-3.7-16-.17-34-2.9-48-12-15-4.2-38 7-51-.21-8.2 7.9-32-1.8-28-10 12 9.1-23 .47-20 6-8 11-16-2.1-7.1-14 2.3 6.2-18 12-23 9.8-2.9 38-20 13-18-11-.74-21-7-31-11-10-5.8-22-39-4.8-17 4.3 6.4 27 16 9.6 3.9-11-2-16-16-2.2-10-6.6-3.7-7.2-7.5-2.1-6.9-2.6-5.1-3.2-10-5.9-16-1.4-10 9.2 9.1 9.5-1.2-3.1-3.5.72-11 5.8-12-.68-1.5 8.1-4.8 5.8-4.5 4.3 13 1.9-11 5.4-2.2 4.2 3.5 3.3-7.5 6.7-.44-.79-7 7.5 8.2 1.8-3.6 6.7-1.4 8.6 10 9.8-1.4 6.7 5.2 13 11 22 10 4.4 2.3 23-2 11-3.8 9.1 1.7 5.9.43.22-1.7 12 2.7 9.1-2.9 21 .55-9.1-6.3-6-6.8 3.3-4.5 3.9 1.9 18 2 16 .87-5.6-1.5 11 .67 7.6-.43 9.9 3.5 21 1.7 30 3.5 14 3.4 9.1 2.1 11-.1 11 4.6-5-5.7 6.2.55 14 6.5 28 13 42 21 4.2 7 11 11 18 14 4.3 4.4 7.3 12 14 6.9.42 6-1.9 13-5.3 13-10-2-19 20-1.5 9.8 9.4-7 22 5.1 8.2 10 5.9 9.3 15 28 22 29-9.2-18 9.5.55 11 6.3 2.4 13 7.7 17 5.7 30-2.9-7.6-7.8-4.6-12-13 .87 8.7-2.6 19-1.9 29-2.9 17-.81 35-1.4 52-.36 14-7.3 27-6 43-2.1 25-8.7 49-12 74-4.3 23-29 35-36 57 5.9 15-12 20-23 21-15 1.9-30 4.7-44-1.4-17-2.2-35 2.6-52 .87-15-.31-30-.34-45-.35-.86-2.8-1.2-5.8-2-8.6z"></path>
<path transform="matrix(1.00, 0, 0, 1.00, 1, 0)" stroke-width="1.00" d="M136 444c-6.2-24-30-35-42-55-13-22-9.6-48-13-72-2.6-18 2.4-37-1.7-55 7-17 6.1-35 10-53 1.1-9.5 4-17-.97-21-3.2-11 4.4-22 2.1-24 8.6-5.1 14-18-.61-11 13-11 34-12 43-30 9.4-5.1 10-14-.66-5.6-15 11-36 14-50-.2-6.8-4.8-20-26-6.2-8.7 10 16 31 15 44 4-17-3.3-30-16-47-21 10 1.5 3.3-5.9 6.7-6.9-7.3-9.7 2 2.6 4.9.11 15 6.4 31 17 47 10 6.5-2.6-21-.83-23-11-7.3-9.3-21-17-16-21-7-8.1 5.1-6.8 3.1-11 2.3-1.6 2.1-1.7 4.2-4.3 2.6 7.8 1.4-6.1 4.3 4.9-.99-8.4 3.8-9.3 12-7.1 5.4-2.8 11 8.8 20 6.3 9.4 1.7 21 1.6 12-1.3 9.9 3 9.7-4.8 21-.095 5 1.6.33-7.8 11-4.1 1.8-.81-18-7.3-9.5-6 9.4-.72 22 8 23 6.3 13 2.8 28-2.2 40 4.5 8 3.4 3.2-1.8 8.6-.95 8.1 3.2 32 12 43 22 7.8 8.3 16 16 24 25 5.3 6.5 4.7 7.5-2.1 7.2-13-14-5.3 14-21 14 12 11 29-10 34 5.8-12 10 16 18 15 32 5.7 9.6 13 24 7.7 26 1.7 6.9-13 3-5.5 14 1.2 5.8-4.7 2.9.6 12 7.1 15-10-16-7.4 6 4.6 37 7.4 75 .52 112-5.2 24-1.4 51-17 72-10 16-29 25-36 42 1.4 13-11 18-22 17-13 .74-26 1.2-39-3.6-17-1.7-34 2.7-51 1-15-.31-30-.34-45-.35 4.3-2.6 11-3.9 13-9.2zm163-310c9.1 9.9 19 18 26 30 5.7-.31-8.4-23-14-30-.33-6.1-15-6.3-12-.17zm-169-20c-8-.27-26 6.5-27 11 12 4.6 18-6.2 27-11z"></path>
<path transform="matrix(1.01, 0, 0, 1.01, -3, -1)" stroke-width="0.99" d="M147 440c-16-21-45-30-56-56-9.7-19-8.1-41-8.5-61 .65-21-.32-42 2.9-62-.31-20 7.1-40 8.9-60 6.7-16 4.1-37 19-49 11-12 23-25 36-36-8.1-2-24 3.6-32 1.7 17-3.4-13-7.6 5.1-9.2.72-1.5-13 .44-16-4.4-2.5-5.4-16-6.4-14-7.9 5.4-3.5-.45-12 9.6-6.8 10 2.3 22 6.2 33 4.3-21 4.6-32-22-45-29 10 4.5 8.1 1.1 3.3-6.2 7.3 5.2-1.5-14 4.1-1.1 2.9-5.5-.059-14 3.5-7.6-.61-6.4 4.7 8.3 7.1-2.4-2.3-6.2 7.8-1.8 12-2.7 4.3 9.3 15 2.1 22 6.9 13 3.3 7-.66 4.9-1.5 9.9 3 9.7-4.8 21-.095 5 1.6.33-7.8 11-4.1-12-7.5 13-2.3 13 .22 13 2.8 28-2.2 40 4.5 9.2 3.6 1.1-3.9 11 2.9 13-5.5 25 11 39 15 7.4 9.2 17 16 24 26-.055 9.3-9.5.23-10 7.3-10-17 .66 15-13 15 10-3.1 25 12 24-4 13 .72.68 21 17 24 6.6 10 17 24 16 34-14-14-23-34-41-43-8.6-1.1-24-7.1-9.9 4.6 11 13 24 25 31 41 12 5.2-1.5 16 5.2 27 2.4 35 11 70 5.4 105-1.7 24-2.9 49-8 73-7.3 23-28 38-46 52-13 6.4-11 31-27 26-11-.78-22-.59-32-4.8-14-2-29 2.5-43 .7-9.8-3.7-21-6.3-29-13z"></path>
<path transform="matrix(1.01, 0, 0, 1.01, -6, -3)" stroke-width="0.99" d="M303 153c13 19 19 42 21 65 3.8 22 6.1 44 9.3 66-1.1 30-3.2 59-7.4 88-4.5 27-28 45-51 57-17 4-14 29-30 28-9 .48-18-1.5-26-4.2-13-1.3-27 2-40 1.3-19-8.2-27-29-46-36-21-6.7-38-25-42-47-2-36-1.8-71 .89-107 4.9-28 11-56 19-83 2.6-19 20-33 31-47 18-18 42-27 66-34-8.4-.49-22 5.5-22 .99-16 8.6-30 1.7-46 6.5-11 4.1-34-20-10-11 10 3.6 23-1.5 5.3-4.5-11-4.9-32-12-30-27 6.7.18 4.3-2.2-.28-9.1 9.9 5.2.094-14 7.3 1.2 6.4 4.6-3.1-19 5.6-4.7 1.5-4.3.15-10 7-3 4.7-12 2.7 13 11 7.1 5.6-8.8 11 2.9 20-2-13-6.1 4.3.031 11-2.5.49-5.8 10 .6 15 .56.03-4.3 25 7.7 18 1.5 3.2-6.7 15 2.5 15-4.8 5.9.99 11 2.5 7.1-.72 8.2.95 16 4.9 24 6.4 3.7-1.8 22 9.1 29 8.5 7.1 6.3 13 8 15 9.1 2.8 6 8.6 8.4 14 11 6.6 5.6 1.2 15-.43 11-.72 6.2-7.4-8.1-4.3 5.6 2.8 7.8-4.8 8.2-5.3 15-11 12-8.1-16-15-.99-10-1.2 4.7-10-11-8.8-14 .91-13-12-25-17-7.7-9.6 8.8 12-4.2 10-3.6 7.7 25 13 33 23 12 9.2 23 21 33 32z"></path>
<path transform="matrix(1.02, 0, 0, 1.02, -10, -5)" stroke-width="0.98" d="M228 107c22 7.2 43 20 59 37 13 16 21 36 26 56 15 15-.011 30 3.6 47 7.5 20 16 40 12 61-4.1 26-2 55-14 79-9.4 21-30 31-49 41-15 7.2-25 23-32 34l-50 10c-13-14-13-39-32-49-18-10-40-15-52-34-15-25-9.9-54-10-81 .28-20-.8-36 8.3-54 7.7-16 3-33 7.1-50 9.2-18 13-38 26-54 15-24 43-37 70-44 8.6-1 18-2.6 26-.84zm-5-8.5c-16 2.6-30-12-47-3-13 8.8-26 8.2-41 15-11 5.3-1.5-2.5 2.9-5.5 20-12-32 9.6-8.3-1.4 7.5-4.8 42-18 17-18-11 1.6-46-19-41-17 13 1.6.35-3.7 3-9.3 6.9 3.4 32 .67 12-1.1-17-5.7 14 .49 21-.19.13-5.4 23 4.5 11-6.3-2.9-3.4 16 7.1 5.3-3.6.092-1.9 13 4.4 14 3 .94-2.5 11 4.8 16 1.1 7.6.087-10-8.8 2.6-4 8.6 2 26-2.1 26-1.1-6.9-6.1 14 4.7 3.7-3.6 13 1.3 24 7.6 34 15 2.6 9.7 3.8 15 15 14 6.1-.67-6.9-6.9-9.1-8.7-11-15 21 9.4 6.7-5.5 6.4 6 12 10 10-.59-3.2 15 39 22 16 32-7.3 2.4 10 15-5 17-11 6.2-20-5.3-29-4.1-5.5-8.4-17-13-24-24 .52 7.9-17-5.9-3.1 6.7 9.5 1.8-3.9 9.3-.95 11-2.9.85-5.7 1.7-8.6 2.5z"></path>
<path transform="matrix(1.03, 0, 0, 1.03, -13, -7)" stroke-width="0.97" d="M247 123c20 9.8 36 25 46 44 7.9 14 16 32 22 45 1.2 17-19 35-.1 50 11 16 13 36 9.8 54-2 25-6 50-16 73-9.2 18-27 27-45 35-18 7.5-29 23-39 38-5.9 7.8-17 6-26 9.1-9-19-20-37-39-48-17-13-43-14-54-35-16-28-9.6-62-12-92-3.3-24 16-41 20-62-8.9-19-5.6-37 7.4-52 13-22 26-48 53-56 20-11 43-15 64-6.9 2.6.82 5.2 1.7 7.6 3.1zm-24-30c-8 12-16-3.2-27 2-16-6.3-32 8.1-43 13-6.5 1.3-13 2.7-20 4 6.7-7.9 14-15 24-19 7.4-4.1 27-13 6.7-10-16 3.3-32-3.8-47-8.7-2.6-5.1-5.5-6.7 2.6-9.8 5.9-2.9 13-2.2 19-3.6-9.3-7.8 22 1.4 28-.066 9.9 5.1 29-5.1 9.8-8.1-13-4.9 1.5-8.6 7.3-3.2 7.1 2.6 15-.16 6.6-7 11 5.2 18 .37 28 5.7-11-11 17 8.7 6.2-5.2 8.9 3.2 20 5.4 25 14-3.8 8.9 11 16 20 15 8.6.14-14-10-5.9-6.8 16 1.1 31 16 26 25 11 16-22 20-24 5.5-11 12-11-13-25-13-9.1-7.2-12-9.3-20-5.7-17-3 .6 6.2 5.9 9.3-13 2.6-20 .89-4.8 6.5l.99.42z"></path>
<path transform="matrix(1.03, 0, 0, 1.03, -17, -9)" stroke-width="0.97" d="M221 125c17 4.5 35 9.6 47 25 12 13 26 24 33 41 22 10 3.3 29-2.8 43 3 9.9 13 4.9-.67 8.3-2.6 21 26 29 26 51 1.8 25-5.6 50-12 74-8.3 21-20 43-42 51-18 8.8-36 20-57 23-26-2.7-46-24-70-32-21-6.7-34-27-35-49-3.6-25-8-51-5.1-76 .2-19 30-36 24-49 8.4-5.5-11-24-8.9-37-.84-11 19-16 21-29 17-23 43-40 72-43 3-2.1 7-2.6 10-1.1zm-29-44c15 4.9-.093 5.3.83 8.3-9.2 2.4-27 16-37 12-7.9.51-17 8.6-6.8-1.3 7.3-6.7 42-21 15-19-8.8 3.8-18-.64-13-3.1-9.4 1.2-43-6.5-18-10 5.7.35-7.1-4.9 5.1-4.5 8.9.87 13 .28 6.4-2.3 12 .97 23 5.1 35 .36 6.8.9 23-12 7.7-8.5 4-5.8 15-1.9 6.1-11 5.4 1.6 30 4.5 26 3.6-6.8-7.5 18 9.7 6.7-2.5 11 3.5 12 14 21 11-1.5 16 12 7.5 21 12 5.1 2 13 3.8 14 10 2.2 6.3-12-11-8.4-1.9 2.9.89 16 12 6.6 8.3-8.3.45-7.3-11-15-12-16-6.3-3.9 20 5.9 20 5.5 6.4-19 .57-14-8.3-5.5-13-6.3-8.1-8-4.6-5.1-4.6 15 25 2.5 8.1-14-7.5-25-33-44-25 19 10-12 4-11 8.1 7.8 3.1 13 5.8 1.3 5.5-6.7-2.3 27 11 8.1 5.4-5.1-.57-10-.31-15 .51zm83 16c6.1 5.7 13-1.8 2.4-1.5-.81.52-1.6 1-2.4 1.5z"></path>
<path transform="matrix(1.04, 0, 0, 1.04, -21, -10)" stroke-width="0.96" d="M160 66c-1.8-6.8 12-2.5 16-7.8 6.8 2.5 25-7.9 9.2-5.4 11-3.3 6-10 18-7.2 6.6-5.7 16 3.8 17 9 7.7 5.6 5.8-13 18-4.5-1.3 12 13 18 19 19 2.7 9.2.34 18-7.1 5-13-4.6-28-13-44-16-5.3 4.7 1.6 10-10 10-3.5 2.6 18 7.2 4.9 7-6.7.25-13 11-19 12-2.7 15-20 12-28 13-7.7 3.3 14-10 17-13 15-11-28 5.1-9.9-10 5.5-4 1.1-5.8.028-10zm157 242c2.1-24-20-38-32-56 .054-10 4.8-5.4 4.6-9.3-7.6-1.3-15-3-7.8-13 7.3.48 13 14 19 5.8-9.7.39-9.8-3.5-5.7-6.4-13 6.9 9.8-9.4-5-.6 3.7-4.6-8.2-.34 1.7-9.7 5.9-12 19-21 2-29-10-16-24-29-41-38-14-12-35-20-53-14-19 10-43 16-56 34-11 11-27 21-16 38 6.9 7 8.4 13 5.1 15 .85 4.3-3.2 2.4-4.1 5.8-.36 4.5 16-11 13 1.4 4 4.2-14-3-8.9 4.3 8.9-6.4 1.9 4.8 8.5-1.5-2.2 5 7-3.4 1.8 5.2 1.5.2 6.9-7.9 7.5 3.9-14 5.3-29 11-38 25-16 27-2.6 59 .95 88 3.3 19 12 40 30 48 20 9.3 39 23 62 25 18-.13 37-4.7 54-12 28-9.2 38-40 46-65 3.9-15 9.4-30 11-46zm-27-62v.33z"></path>
<path transform="matrix(1.05, 0, 0, 1.05, -25, -12)" stroke-width="0.95" d="M144 238c-.14 2.8-2.4.35-2.4 2.8-2.5 4.7.066-3.6 2.4-2.8zm-12-16l.11.11zm18 16c-6.2 4.5.27 7.2 0 0zm37 188c29 6.8 61 .53 84-17 15-15 19-38 26-58 6.1-21 15-45 2.1-66-12-14-30-22-46-29-13-1.6-38-28-17-33 19-5.4 41-3.9 55-19 5-10-12-16-18-22-13-16-34-18-51-28-19-8.4-38 8.7-58 10-13 9.1-33 19-37 32 1.9 7.9 18 21 15 23-3.6-3.5-.71.75-5.6 4.2-2.4-6.7-2.7.62-4.4-2.5 4.1 3.9-5.5.3 3.2 4.5-16 2.1 8 .48 13-3.3 12 .54 18 7.1 19-4.6 16-8.6 36 16 13 21-9.4 6.8-29-11-31 3.3 6 14-26 16-31 29-9.7 14-14 30-10 47 7.4 27 9.1 56 26 79 14 13 33 23 52 28zm70-200c-.42-5.5-4.3 1.8 1.3 2.1l-.27-.61zm8 .66c2.6-11-5.7-3.3-2.2.5zm2-.17c7.2-.13 7.8-8.4 4.1-5.5-.031-5.9-2.6 5-4.1 5.5zm6.4.33c12 6.5 20-5.1 10-.069 4.7-9.7-3.3 4.3-.9-4-5 6.6-1.6-4.1-5.8-1.7-1.8 1.6-2.5 3.8-3.6 5.8m-83-163c-10-3.6-16-5-13-2.2-3.1-.81-8.7 3.3-9.9 3.5 4.5-1.9 28 5 23-1.3zm31 .33c-5.4-5.4-22-14-15-7.4-12-4.3 20 15 15 7.4zm-55 28c-12 1.7-2.5 4.5-4.1 4.8 2.5-.35 12-2.2 4.1-4.8zm8 4.6c-8.8 4.5-5.4 5.7 1.4.33l-1-.25z"></path>
<path transform="matrix(1.06, 0, 0, 1.06, -29, -14)" stroke-width="0.94" d="M206 417c22 .58 48 .33 63-18 6.5-17 9.8-35 14-53 2.5-19 13-40 3.5-59-14-16-39-15-50-33-8.6-13-26-44-.47-48 12-2.5 47-13 22-26-20-12-45-3-66-11-17-3.6-42-2.1-50 16 5.7 22 35 9.9 48 24 15 13-1.6 34-13 43-15 15-38 13-54 24-16 17-6.2 40-1.9 59 3.7 16 7.1 32 10 48 9 23 36 31 59 33 5.2.48 10 .83 16 .98z"></path>
<path transform="matrix(1.06, 0, 0, 1.06, -33, -16)" stroke-width="0.94" d="M210 414c20-.65 46-.064 56-21 6.1-20-2.2-40 5-60 2.9-18-6.3-33-23-41-7.9-5.8-5.4-20-14-28-11-13-6.6-47-30-42-11 14-12 33-22 46-5.1 15-18 17-33 18-20 7.7-11 31-9.9 47 5.2 20 2.4 41 9.6 60 9 20 34 18 53 20 2.7.14 5.5.24 8.2.31z"></path>
<path transform="matrix(1.07, 0, 0, 1.07, -37, -18)" stroke-width="0.93" d="M212 409c17 1.1 41 .72 47-19-1.4-17-6.7-33-12-48-6.9-11 5-22-8.5-32-7.4-4-25-24-5-20 18-11-15-23-13-39-2.2-17-21-18-24-.89.45 13-25 26-15 35 18-7.5 7.9 23-3.6 26-8.2 6.9-5.5 16-.74 20-10 14-5.2 35-13 48-6.4 22 20 33 38 30 3.3-.065 6.6-.27 10-.19z"></path>
<path transform="matrix(1.08, 0, 0, 1.08, -41, -20)" stroke-width="0.93" d="M212 407c16 2.8 39-5.6 37-25-8.5-16-20-30-14-49-3.5-9.4.71-17-12-22-17-11-10-31 7.2-33-5.4-13-20-46-35-22-9.4 11-17 28 3.8 29 9.4 17-9.9 24-16 36 19 5.2-6.7 14 4.1 24 9.2 19-30 38-7.9 56 9.2 6.3 21 6.7 32 6.7z"></path>
<path transform="matrix(1.09, 0, 0, 1.09, -45, -22)" stroke-width="0.92" d="M210 290c17-5 19-31 .23-37-23 .99-25 31-.23 37zm8.9 43c-18 9.2-16-9.8 0 0zm-1.8 27c16 2 34 24 16 35-15 9.8-44 8.4-49-11-.36-16 19-30 34-24z"></path>
<path transform="matrix(1.10, 0, 0, 1.10, -49, -24)" stroke-width="0.91" d="M224 371c24 15-8.7 28-23 19-21-11 11-28 23-19zm-8.5-86c21-17-16-44-21-15-.073 8.9 12 22 21 15z"></path>
<path transform="matrix(1.10, 0, 0, 1.10, -53, -27)" stroke-width="0.91" d="M217 280c15-20-29-20-14 .21 2.7 5.8 11 5.1 14-.21z"></path>
</g>
</svg>