<?xml version="1.0" encoding="UTF-8" standalone="no"?>
<svg
   xmlns:dc="http://purl.org/dc/elements/1.1/"
   xmlns:cc="http://creativecommons.org/ns#"
   xmlns:rdf="http://www.w3.org/1999/02/22-rdf-syntax-ns#"
   xmlns:svg="http://www.w3.org/2000/svg"
   xmlns="http://www.w3.org/2000/svg"
   xmlns:sodipodi="http://sodipodi.sourceforge.net/DTD/sodipodi-0.dtd"
   xmlns:inkscape="http://www.inkscape.org/namespaces/inkscape"
   sodipodi:docname="favicon.svg"
   inkscape:version="1.0beta2 (2b71d25, 2019-12-03)"
   id="svg8"
   version="1.1"
   viewBox="0 0 512 512"
   height="512"
   width="512">
  <defs
     id="defs2" />
  <sodipodi:namedview
     inkscape:window-maximized="0"
     inkscape:window-y="23"
     inkscape:window-x="1441"
     inkscape:window-height="1035"
     inkscape:window-width="1919"
     inkscape:snap-page="true"
     units="px"
     showgrid="false"
     inkscape:document-rotation="0"
     inkscape:current-layer="text12"
     inkscape:document-units="px"
     inkscape:cy="560"
     inkscape:cx="222.85714"
     inkscape:zoom="0.5"
     inkscape:pageshadow="2"
     inkscape:pageopacity="0.0"
     borderopacity="1.0"
     bordercolor="#666666"
     pagecolor="#ffffff"
     id="base" />
  <metadata
     id="metadata5">
    <rdf:RDF>
      <cc:Work
         rdf:about="">
        <dc:format>image/svg+xml</dc:format>
        <dc:type
           rdf:resource="http://purl.org/dc/dcmitype/StillImage" />
        <dc:title></dc:title>
      </cc:Work>
    </rdf:RDF>
  </metadata>
  <g
     id="layer1"
     inkscape:groupmode="layer"
     inkscape:label="Layer 1">
    <g
       style="font-style:normal;font-variant:normal;font-weight:normal;font-stretch:normal;font-size:647.318px;line-height:1.25;font-family:'Akzidenz-Grotesk BQ';-inkscape-font-specification:'Akzidenz-Grotesk BQ Normal';font-variant-ligatures:normal;font-variant-caps:normal;font-variant-numeric:normal;font-variant-east-asian:normal;fill:#36ffb4;fill-opacity:1;stroke:#222222;stroke-width:5;stroke-miterlimit:4;stroke-dasharray:none;stroke-opacity:1"
       id="text12"
       transform="scale(1.0000778,0.99992225)"
       aria-label="C">
      <rect
         ry="0"
         y="0"
         x="0"
         height="512.03986"
         width="511.96017"
         id="rect942"
         style="fill:#36ffb4;fill-opacity:1;stroke:none;stroke-width:5;stroke-miterlimit:4;stroke-dasharray:none;stroke-opacity:1" />
      <path
         inkscape:connector-curvature="0"
         id="path921"
         style="fill:#222222;fill-opacity:1;stroke:none;stroke-width:5;stroke-miterlimit:4;stroke-dasharray:none;stroke-opacity:1"
         d="m 437.80864,164.08163 c -7.79981,-14.03965 -12.99968,-22.87943 -23.91941,-35.35912 -20.2795,-23.39943 -70.19827,-67.078346 -153.91619,-67.078346 -32.23921,0 -102.43747,5.199872 -152.87622,76.438116 -35.359126,49.39877 -37.959062,100.35751 -37.959062,122.71696 0,25.99935 4.679884,99.31754 66.038372,150.79627 35.87911,30.67924 77.47808,42.11896 124.27692,42.11896 81.63798,0 128.43682,-37.43908 150.27628,-62.39846 8.83979,-10.39974 15.59962,-19.75951 28.5993,-43.67892 l -99.31755,-47.83882 c -3.6399,10.91973 -5.71986,15.59962 -8.31979,20.79949 -7.27982,12.47969 -25.99935,39.51902 -66.03837,39.51902 -8.83978,0 -25.47937,-0.51999 -43.67892,-14.55963 -17.67956,-14.03966 -33.79916,-41.07899 -33.79916,-91.51774 0,-9.35977 -1.55997,-62.39846 34.83913,-89.43779 7.27983,-5.19987 20.79949,-12.99968 42.11896,-12.99968 46.79885,-0.51999 64.9984,37.43907 71.23825,49.91876 1.55995,3.63992 3.6399,7.27982 5.19987,10.91973 z" />
    </g>
  </g>
</svg>
