<?xml version="1.0" encoding="UTF-8" standalone="no"?>
<svg
   xmlns:dc="http://purl.org/dc/elements/1.1/"
   xmlns:cc="http://creativecommons.org/ns#"
   xmlns:rdf="http://www.w3.org/1999/02/22-rdf-syntax-ns#"
   xmlns:svg="http://www.w3.org/2000/svg"
   xmlns="http://www.w3.org/2000/svg"
   xmlns:sodipodi="http://sodipodi.sourceforge.net/DTD/sodipodi-0.dtd"
   xmlns:inkscape="http://www.inkscape.org/namespaces/inkscape"
   inkscape:version="1.0beta2 (2b71d25, 2019-12-03)"
   sodipodi:docname="tetras_radiation.svg"
   id="svg136"
   version="1.1"
   viewBox="0 0 480 300"
   height="300"
   width="480">
  <metadata
     id="metadata140">
    <rdf:RDF>
      <cc:Work
         rdf:about="">
        <dc:format>image/svg+xml</dc:format>
        <dc:type
           rdf:resource="http://purl.org/dc/dcmitype/StillImage" />
        <dc:title />
      </cc:Work>
    </rdf:RDF>
  </metadata>
  <sodipodi:namedview
     inkscape:current-layer="svg136"
     inkscape:window-maximized="0"
     inkscape:window-y="23"
     inkscape:window-x="0"
     inkscape:cy="271.39034"
     inkscape:cx="275.21983"
     inkscape:zoom="1.5559772"
     inkscape:snap-smooth-nodes="true"
     inkscape:snap-others="true"
     inkscape:snap-object-midpoints="true"
     showgrid="false"
     id="namedview138"
     inkscape:window-height="1035"
     inkscape:window-width="1920"
     inkscape:pageshadow="2"
     inkscape:pageopacity="0"
     guidetolerance="10"
     gridtolerance="10"
     objecttolerance="10"
     borderopacity="1"
     inkscape:document-rotation="0"
     bordercolor="#666666"
     pagecolor="#ffffff"
     showguides="true"
     inkscape:guide-bbox="true"
     inkscape:object-paths="true"
     inkscape:snap-to-guides="false"
     inkscape:snap-intersection-paths="true"
     inkscape:snap-nodes="false">
    <sodipodi:guide
       position="240.04208,44.21219"
       orientation="0,-1"
       id="guide1810" />
  </sodipodi:namedview>
  <defs
     id="defs100">
    <marker
       inkscape:stockid="TriangleOutM"
       orient="auto"
       refY="0.0"
       refX="0.0"
       id="TriangleOutM"
       style="overflow:visible"
       inkscape:isstock="true">
      <path
         id="path1625"
         d="M 5.77,0.0 L -2.88,5.0 L -2.88,-5.0 L 5.77,0.0 z "
         style="fill-rule:evenodd;stroke:#000000;stroke-width:1pt;stroke-opacity:1;fill:#000000;fill-opacity:1"
         transform="scale(0.4)" />
    </marker>
    <marker
       inkscape:stockid="TriangleOutL"
       orient="auto"
       refY="0.0"
       refX="0.0"
       id="TriangleOutL"
       style="overflow:visible"
       inkscape:isstock="true">
      <path
         id="path1622"
         d="M 5.77,0.0 L -2.88,5.0 L -2.88,-5.0 L 5.77,0.0 z "
         style="fill-rule:evenodd;stroke:#000000;stroke-width:1pt;stroke-opacity:1;fill:#000000;fill-opacity:1"
         transform="scale(0.8)" />
    </marker>
    <marker
       inkscape:stockid="Arrow1Lstart"
       orient="auto"
       refY="0.0"
       refX="0.0"
       id="Arrow1Lstart"
       style="overflow:visible"
       inkscape:isstock="true">
      <path
         id="path1480"
         d="M 0.0,0.0 L 5.0,-5.0 L -12.5,0.0 L 5.0,5.0 L 0.0,0.0 z "
         style="fill-rule:evenodd;stroke:#000000;stroke-width:1pt;stroke-opacity:1;fill:#7bffd0;fill-opacity:1"
         transform="scale(0.8) translate(12.5,0)" />
    </marker>
    <marker
       orient="auto"
       overflow="visible"
       id="b">
      <path
         inkscape:connector-curvature="0"
         id="path94"
         stroke-width=".2pt"
         stroke="#000"
         fill-rule="evenodd"
         fill-opacity=".51"
         fill="#7bffd0"
         d="m 0.98,0 a 1,1 0 1 1 -2,0 1,1 0 0 1 2,0 z" />
    </marker>
    <marker
       orient="auto"
       overflow="visible"
       id="a">
      <path
         inkscape:connector-curvature="0"
         id="path97"
         stroke-width=".2pt"
         stroke="#000"
         fill-rule="evenodd"
         fill-opacity=".51"
         fill="#7bffd0"
         d="m 0.98,0 a 1,1 0 1 1 -2,0 1,1 0 0 1 2,0 z" />
    </marker>
  </defs>
  <path
     style="fill:none;stroke:#000000;stroke-width:1.5;stroke-linecap:butt;stroke-linejoin:miter;stroke-miterlimit:4;stroke-dasharray:4.50001, 1.5;stroke-dashoffset:0;stroke-opacity:1"
     d="m 194.77919,229.7193 90.28855,52.03035"
     id="path1355"
     inkscape:connector-curvature="0" />
  <path
     style="fill:none;stroke:#000000;stroke-width:1.5;stroke-linecap:butt;stroke-linejoin:miter;stroke-miterlimit:4;stroke-dasharray:4.50001, 1.5;stroke-dashoffset:0;stroke-opacity:1"
     d="m 194.77919,281.75132 90.28855,-52.03367"
     id="path1359"
     inkscape:connector-curvature="0" />
  <path
     inkscape:connector-curvature="0"
     id="path1355-2"
     d="m 168.26191,245.00132 90.28855,52.03036"
     style="fill:none;stroke:#000000;stroke-width:1.5;stroke-linecap:butt;stroke-linejoin:miter;stroke-miterlimit:4;stroke-dasharray:4.50001, 1.5;stroke-dashoffset:0;stroke-opacity:1" />
  <path
     inkscape:connector-curvature="0"
     id="path1355-9"
     d="m 221.29647,214.35015 90.28854,52.03034"
     style="fill:none;stroke:#000000;stroke-width:1.5;stroke-linecap:butt;stroke-linejoin:miter;stroke-miterlimit:4;stroke-dasharray:4.50001, 1.5;stroke-dashoffset:0;stroke-opacity:1" />
  <path
     style="fill:none;stroke:#000000;stroke-width:1.5;stroke-linecap:butt;stroke-linejoin:miter;stroke-miterlimit:4;stroke-dasharray:4.50001, 1.5;stroke-dashoffset:0;stroke-opacity:1"
     d="m 258.55046,214.43728 -90.28855,52.03034"
     id="path1355-9-5"
     inkscape:connector-curvature="0" />
  <path
     style="fill:none;stroke:#000000;stroke-width:1.5;stroke-linecap:butt;stroke-linejoin:miter;stroke-miterlimit:4;stroke-dasharray:4.50001, 1.5;stroke-dashoffset:0;stroke-opacity:1"
     d="m 311.73809,244.95692 -90.28856,52.03036"
     id="path1355-2-7-3-8"
     inkscape:connector-curvature="0" />
  <circle
     r="2.4173701"
     cy="255.73447"
     cx="240"
     id="path1455"
     style="fill:#000000;fill-opacity:1;stroke:none;stroke-width:1.5;stroke-miterlimit:4;stroke-dasharray:4.5, 1.5;stroke-dashoffset:0;stroke-opacity:1" />
  <path
     inkscape:connector-curvature="0"
     d="m 213.33867,235.86586 a 17.773673,17.600931 0 0 1 0,-30.48562 53.32265,52.802798 0 0 1 53.32265,0 17.773673,17.600931 0 0 1 0,30.48562 53.32265,52.802798 0 0 1 -53.32265,0 z"
     fill="#7bffd0"
     stroke-width="3"
     id="path110"
     style="fill:#7bffd0;fill-opacity:0.5;stroke:#000000;stroke-width:1.99937008;stroke-miterlimit:4;stroke-dasharray:none;stroke-opacity:1" />
  <path
     style="fill:#7bffd0;fill-opacity:0.5;stroke:#000000;stroke-width:1.99937008;stroke-miterlimit:4;stroke-dasharray:none;stroke-opacity:1"
     id="path110-1"
     stroke-width="3"
     fill="#7bffd0"
     d="m 186.02648,215.71178 a 35.981239,35.911808 0 0 1 0,-62.2009 107.94702,107.73543 0 0 1 107.94701,0 35.981239,35.911808 0 0 1 0,62.2009 107.94702,107.73543 0 0 1 -107.94701,0 z"
     inkscape:connector-curvature="0" />
  <path
     inkscape:connector-curvature="0"
     d="m 158.71298,200.05905 a 54.189674,54.222546 0 0 1 0,-93.91594 162.57399,162.66765 0 0 1 162.574,0 54.189674,54.222546 0 0 1 0,93.91594 162.57399,162.66765 0 0 1 -162.574,0 z"
     fill="#7bffd0"
     stroke-width="3"
     id="path110-1-8"
     style="fill:#7bffd0;fill-opacity:0.5;stroke:#000000;stroke-width:1.99937008;stroke-miterlimit:4;stroke-dasharray:none;stroke-opacity:1" />
  <path
     style="fill:#7bffd0;fill-opacity:0.5;stroke:#000000;stroke-width:1.99937008;stroke-miterlimit:4;stroke-dasharray:none;stroke-opacity:1"
     id="path110-1-8-7"
     stroke-width="3"
     fill="#7bffd0"
     d="m 138.22242,184.94339 a 67.849629,67.955578 0 0 1 0,-117.702178 203.55511,203.86675 0 0 1 203.55512,0 67.849629,67.955578 0 0 1 0,117.702178 203.55511,203.86675 0 0 1 -203.55512,0 z"
     inkscape:connector-curvature="0" />
  <path
     inkscape:connector-curvature="0"
     d="m 122.8545,171.35591 a 78.09459,78.255346 0 0 1 0,-135.54185 234.29093,234.76605 0 0 1 234.29095,0 78.09459,78.255346 0 0 1 0,135.54185 234.29093,234.76605 0 0 1 -234.29095,0 z"
     fill="#7bffd0"
     stroke-width="3"
     id="path110-1-8-7-8"
     style="fill:#7bffd0;fill-opacity:0.5;stroke:#000000;stroke-width:1.99937008;stroke-miterlimit:4;stroke-dasharray:none;stroke-opacity:1" />
  <path
     sodipodi:nodetypes="cccc"
     style="fill:none;stroke:#000000;stroke-width:2;stroke-linecap:butt;stroke-linejoin:miter;stroke-miterlimit:4;stroke-dasharray:none;stroke-opacity:1;marker-end:url(#TriangleOutM)"
     d="M 71.499503,98.669315 H 59.106256 V 256.13135 H 213.85501"
     id="path1804"
     inkscape:connector-curvature="0" />
</svg>
