<?xml version="1.0" standalone="no"?>
<!DOCTYPE svg PUBLIC "-//W3C//DTD SVG 20010904//EN"
 "http://www.w3.org/TR/2001/REC-SVG-20010904/DTD/svg10.dtd">
<svg version="1.0" xmlns="http://www.w3.org/2000/svg"
 width="700.000000pt" height="700.000000pt" viewBox="0 0 700.000000 700.000000"
 preserveAspectRatio="xMidYMid meet">
<metadata>
Created by potrace 1.11, written by Peter Selinger 2001-2013
</metadata>
<g transform="translate(0.000000,700.000000) scale(0.100000,-0.100000)"
fill="#000000" stroke="none">
<path d="M3348 6150 c-899 -60 -1594 -500 -2045 -1295 -160 -281 -274 -627
-330 -1000 -22 -153 -25 -647 -5 -795 89 -627 321 -1128 705 -1519 398 -406
839 -627 1422 -713 200 -30 667 -32 868 -5 442 60 826 197 1152 411 355 233
606 514 829 928 l47 87 -63 29 c-35 16 -339 163 -677 326 -338 163 -615 295
-616 294 -1 -2 -14 -39 -30 -83 -45 -130 -100 -234 -169 -326 -144 -190 -310
-307 -531 -375 -85 -27 -100 -28 -290 -28 -193 0 -203 1 -285 28 -509 169
-770 653 -770 1428 0 404 77 712 239 958 49 75 173 203 246 255 331 235 827
231 1151 -8 161 -118 290 -289 406 -537 27 -57 51 -106 52 -108 3 -3 1315 644
1324 653 2 2 -12 35 -33 72 -349 638 -1016 1114 -1780 1268 -239 49 -575 71
-817 55z"/>
</g>
</svg>
