<svg width="480" height="297" style="max-width:30rem" aria-describedby="tile-plane-desc" aria-labelledby="tile-plane-title" role="img" viewBox="0 0 480 297">
 <title id="tile-plane-title">Tile plane diagram</title>
 <desc id="tile-plane-desc">Diagram showing the coordinate system and the relationship between the tile plane and the viewport</desc>
 <defs>
  <clipPath id="tile-plane-clip-a">
   <path d="m67.206 36.326h351.47v202.61h-351.47z"/>
  </clipPath>
  <clipPath id="tile-plane-clip-b">
   <path d="m3.8106-2.7709v278.17h479.57v-278.17zm63.396 39.097h351.47v202.61h-351.47z"/>
  </clipPath>
 </defs>
 <g clip-path="url(#tile-plane-clip-b)">
  <path d="m55.272 4.1286-46.862 26.612 46.862 26.612v0.0015l-46.862 26.612 46.862 26.612-46.862 26.612 46.862 26.612-46.862 26.612 46.862 26.612-46.862 26.612 46.862 26.612 46.862-26.612 46.862 26.612 46.862-26.612 46.862 26.612 46.862-26.612 46.862 26.612 46.862-26.612 46.862 26.612 46.862-26.612-46.862-26.612 46.862-26.612-46.862-26.612 46.862-26.612-46.862-26.612 46.862-26.612-46.862-26.612 46.862-26.612-46.862-26.612-46.862 26.612-46.862-26.612-46.862 26.612-46.862-26.612-46.862 26.612-46.862-26.612-46.862 26.612-46.862-26.612" fill="var(--color-base)" fill-opacity=".25"/>
  <g fill="none" stroke="currentColor" stroke-dasharray="6, 2" stroke-width="1.5">
   <path d="m148.78 217.9-46.862 26.612 46.862 26.612 46.862-26.612-46.862-26.612"/>
   <path d="m242.94 217.9-46.862 26.612 46.862 26.612 46.862-26.612-46.862-26.612"/>
   <path d="m337.1 217.9-46.862 26.612 46.862 26.612 46.862-26.612-46.862-26.612m-281.39-53.334-46.862 26.612 46.862 26.612 46.862-26.612-46.862-26.612"/>
   <path d="m55.272 217.9-46.862 26.612 46.862 26.612 46.862-26.612-46.862-26.612m375.56 0-46.862 26.612 46.862 26.612 46.862-26.612-46.862-26.612"/>
   <path d="m430.17 164.24-46.862 26.612 46.862 26.612 46.862-26.612-46.862-26.612m0-53.334-46.862 26.612 46.862 26.612 46.862-26.612-46.862-26.612"/>
   <path d="m430.17 57.463-46.862 26.612 46.862 26.612 46.862-26.612-46.862-26.612m-375.56 0-46.862 26.612 46.862 26.612 46.862-26.612-46.862-26.612"/>
   <path d="m55.272 110.58-46.862 26.612 46.862 26.612 46.862-26.612-46.862-26.612m0-106.67-46.862 26.612 46.862 26.612 46.862-26.612-46.862-26.612m93.834 0-46.862 26.612 46.862 26.612 46.862-26.612-46.862-26.612"/>
   <path d="m242.94 4.1286-46.862 26.612 46.862 26.612 46.862-26.612-46.862-26.612"/>
   <path d="m337.1 4.1286-46.862 26.612 46.862 26.612 46.862-26.612-46.862-26.612m93.834 7.448e-4 -46.862 26.612 46.862 26.612 46.862-26.612-46.862-26.612"/>
  </g>
 </g>
 <path d="m420 275 12-30.4m-104 31.2v-37.1" fill="none" stroke="currentColor"/>
 <g class="body-font" font-size="14px">
  <text x="417.12827" y="291.6434" font-size="14px" text-anchor="middle">tile plane</text>
  <text x="327.539" y="291.6434" font-size="14px" text-anchor="middle">viewport</text>
 </g>
 <g clip-path="url(#tile-plane-clip-a)">
  <path d="m55.272 4.1286-46.862 26.612 46.862 26.612v0.0015l-46.862 26.612 46.862 26.612-46.862 26.612 46.862 26.612-46.862 26.612 46.862 26.612-46.862 26.612 46.862 26.612 46.862-26.612 46.862 26.612 46.862-26.612 46.862 26.612 46.862-26.612 46.862 26.612 46.862-26.612 46.862 26.612 46.862-26.612-46.862-26.612 46.862-26.612-46.862-26.612 46.862-26.612-46.862-26.612 46.862-26.612-46.862-26.612 46.862-26.612-46.862-26.612-46.862 26.612-46.862-26.612-46.862 26.612-46.862-26.612-46.862 26.612-46.862-26.612-46.862 26.612-46.862-26.612" fill="var(--color-base)" fill-opacity=".5"/>
  <g fill="none" stroke="currentColor" stroke-width="1.5px">
    <path d="m149.11 3.9096-141.35 80.166 329.35 187.05 139.93-80.275z"/>
    <path d="m8.4093 30.522 46.862-26.612 422.42 240.61-46.862 26.612z" />
    <path d="m8.4093 137.19 234.53-133.06 234.09 133.39-234.09 133.61z" />
    <path d="m148.78 271.13-140.04-79.947 328.37-187.05 139.93 79.947z" />
    <path d="m477.8 30.742-422.53 240.39-46.862-26.612 422.53-240.39z" />
  </g>
 </g>
 <path d="m67.206 36.326v202.61h351.47v-202.61z" fill="none" stroke="currentColor" stroke-width="2"/>
</svg>
